<svg width="197" height="71" viewBox="0 0 197 71" fill="none" xmlns="http://www.w3.org/2000/svg">
<path d="M147.028 31.6684C141.741 31.6684 137.145 33.6006 133.369 37.4649C129.495 41.3293 127.656 45.9797 127.656 51.3833C127.656 56.7869 129.495 61.4373 133.369 65.2034C137.145 69.0678 141.709 71 147.028 71C152.347 71 157.009 69.0678 160.883 65.2034C162.727 63.4079 164.185 61.2564 165.167 58.8802C166.149 56.5041 166.636 53.9532 166.596 51.3833C166.596 45.9797 164.659 41.3293 160.883 37.4649C157.009 33.6006 152.412 31.6684 147.028 31.6684ZM154.349 58.5881C153.428 59.5742 152.309 60.3553 151.064 60.8801C149.819 61.405 148.477 61.6618 147.126 61.6338C145.778 61.643 144.442 61.3777 143.2 60.854C141.958 60.3303 140.836 59.5593 139.903 58.5881C137.966 56.5577 136.849 54.1342 136.849 51.2851C136.834 49.9246 137.096 48.5753 137.621 47.3196C138.146 46.064 138.923 44.9283 139.903 43.982C140.816 42.9912 141.936 42.2134 143.185 41.7039C144.433 41.1945 145.779 40.9659 147.126 41.0346C148.487 40.9749 149.845 41.2072 151.108 41.7156C152.371 42.2241 153.51 42.997 154.448 43.982C156.385 45.9142 157.304 48.3376 157.403 51.2851C157.345 54.0163 156.254 56.6248 154.349 58.5881ZM24.034 31.2754C26.894 31.2896 29.6885 32.1314 32.0782 33.6988C34.3485 35.2699 36.1702 37.4029 37.3643 39.8884H47.1487C45.7368 34.714 42.9788 30.3584 38.7105 27.0835C34.4422 23.6448 29.4515 22.0074 24.034 22.0074C17.3032 22.0074 11.82 24.3326 7.12483 29.1139C2.33117 33.8953 0 39.5609 0 46.2744C0 52.8898 2.33117 58.7518 7.12483 63.5332C11.82 68.2163 17.4017 70.5415 24.1325 70.5415C29.4493 70.5921 34.6252 68.8366 38.809 65.5636C42.9788 62.125 45.8353 57.9331 47.2472 52.7588H37.4628C36.2596 55.2384 34.4397 57.3693 32.1767 58.9483C29.7713 60.4702 26.9809 61.2768 24.1325 61.2735C22.1813 61.2975 20.2457 60.9235 18.4446 60.1745C16.6435 59.4255 15.0149 58.3173 13.6587 56.9179C10.7037 53.9705 9.29183 50.5318 9.39033 46.3727C9.30449 44.4128 9.64109 42.4573 10.3774 40.6382C11.1137 38.819 12.2326 37.1786 13.6587 35.8275C14.9542 34.3643 16.553 33.1994 18.3445 32.4134C20.1359 31.6274 22.0772 31.2391 24.034 31.2754ZM94.2973 34.0263C90.948 32.2564 87.1825 31.4192 83.3967 31.6029C77.0927 31.5046 72.693 33.2403 70.1648 36.5807C68.5232 38.6112 67.7352 41.3621 67.5053 44.7025H76.8628C77.0598 43.065 77.5852 41.9516 78.1762 41.2638C79.194 40.0521 80.8357 39.3316 83.1668 39.4299C84.7547 39.3033 86.3466 39.6208 87.7635 40.3469C88.8798 40.8708 89.3067 41.9843 89.4052 43.4908C89.4052 44.7025 88.6828 45.7177 87.271 46.3399L80.0477 47.4534C76.6987 47.8464 74.0392 48.6651 72.0035 49.8768C68.556 51.9073 66.8158 55.2477 66.9143 60.0291C66.8158 63.3695 67.9322 66.0221 70.0663 68.0526C72.0035 69.69 74.5317 70.607 77.7165 70.7053C82.8057 70.607 86.877 69.3953 89.7335 66.8409V70.7053H99.091V43.2943C98.9597 38.7749 97.3508 35.631 94.2973 34.0263ZM89.1097 55.4442C89.1097 58.6863 88.1903 60.9133 86.4502 62.1577C84.6115 63.3695 82.7728 64.0899 80.6387 64.0899C79.4273 64.1133 78.2447 63.7202 77.2897 62.9765C76.3703 62.1577 75.9763 61.0443 75.9763 59.3086C75.9763 57.3764 76.6987 56.0664 78.209 55.0512C79.5695 54.3621 81.054 53.9502 82.5758 53.8395L87.271 52.6278L89.1097 51.6125V55.4442ZM51.9423 22.0401H61.2998V70.6725H51.9423V22.0401ZM124.34 31.9958L120.761 33.0111C118.087 34.0951 115.784 35.9259 114.129 38.2837V33.5023L105.264 33.4041V70.7708H114.523V52.8898C114.523 49.8441 114.917 47.7154 115.737 46.2744C116.361 44.8662 117.576 43.6218 118.988 42.7048C120.477 41.6526 122.253 41.081 124.077 41.0673L126.934 41.2638L126.835 31.7339L124.34 31.9958ZM184.786 4.65037L162.295 27.2145L168.205 33.1093L190.696 10.5779L184.786 4.65037ZM143.974 0H152.314V24.1688H143.974V0ZM172.276 42.4428H197V50.7611H172.276V42.4428Z" fill="#DA291C"/>
</svg>
