<svg width="324" height="324" viewBox="0 0 324 324" fill="none" xmlns="http://www.w3.org/2000/svg">
<path d="M324 247.795H0V247.957H324V247.795Z" fill="#EBEBEB"/>
<path d="M291.535 258.222H270.073V258.384H291.535V258.222Z" fill="#EBEBEB"/>
<path d="M195.333 258.306H189.702V258.468H195.333V258.306Z" fill="#EBEBEB"/>
<path d="M269.419 252.208H229.606V252.37H269.419V252.208Z" fill="#EBEBEB"/>
<path d="M145.891 256.031H137.668V256.193H145.891V256.031Z" fill="#EBEBEB"/>
<path d="M131.9 256.031H108.035V256.193H131.9V256.031Z" fill="#EBEBEB"/>
<path d="M50.4727 253.297H33.9941V253.459H50.4727V253.297Z" fill="#EBEBEB"/>
<path d="M102.889 253.297H54.3607V253.459H102.889V253.297Z" fill="#EBEBEB"/>
<path d="M153.576 218.894H28.4537C27.4735 218.893 26.534 218.502 25.8415 217.808C25.149 217.115 24.7601 216.175 24.7601 215.194V39.3077C24.7686 38.3331 25.1613 37.4013 25.8529 36.7145C26.5445 36.0278 27.4791 35.6417 28.4537 35.64H153.576C154.557 35.64 155.498 36.0298 156.192 36.7237C156.886 37.4176 157.276 38.3588 157.276 39.3401V215.194C157.276 216.176 156.886 217.117 156.192 217.811C155.498 218.505 154.557 218.894 153.576 218.894ZM28.4537 35.7696C27.5164 35.7713 26.6182 36.1448 25.9561 36.8082C25.2939 37.4715 24.9221 38.3705 24.9221 39.3077V215.194C24.9221 216.132 25.2939 217.031 25.9561 217.694C26.6182 218.357 27.5164 218.731 28.4537 218.732H153.576C154.514 218.731 155.413 218.357 156.076 217.694C156.739 217.031 157.112 216.132 157.114 215.194V39.3077C157.112 38.3699 156.739 37.4709 156.076 36.8078C155.413 36.1446 154.514 35.7713 153.576 35.7696H28.4537Z" fill="#EBEBEB"/>
<path d="M293.745 218.894H168.616C167.635 218.893 166.695 218.502 166.002 217.809C165.308 217.115 164.918 216.175 164.916 215.194V39.3077C164.926 38.3325 165.32 37.4007 166.013 36.7141C166.706 36.0276 167.641 35.6417 168.616 35.64H293.745C294.718 35.6434 295.651 36.0303 296.341 36.7168C297.032 37.4034 297.423 38.3342 297.432 39.3077V215.194C297.432 216.173 297.044 217.113 296.353 217.806C295.662 218.5 294.724 218.891 293.745 218.894ZM168.616 35.7696C167.678 35.7713 166.779 36.1446 166.116 36.8078C165.453 37.4709 165.08 38.3699 165.078 39.3077V215.194C165.08 216.132 165.453 217.031 166.116 217.694C166.779 218.357 167.678 218.731 168.616 218.732H293.745C294.683 218.731 295.582 218.357 296.245 217.694C296.908 217.031 297.281 216.132 297.283 215.194V39.3077C297.281 38.3699 296.908 37.4709 296.245 36.8078C295.582 36.1446 294.683 35.7713 293.745 35.7696H168.616Z" fill="#EBEBEB"/>
<path d="M46.7467 178.343H134.68L134.68 55.3651L46.7467 55.3651L46.7467 178.343Z" fill="#E6E6E6"/>
<path d="M44.7962 178.343H132.73L132.73 55.3651L44.7962 55.3651L44.7962 178.343Z" fill="#F5F5F5"/>
<path d="M129.218 174.403V59.3049L48.3019 59.3049V174.403H129.218Z" fill="white"/>
<path d="M49.7794 174.403L49.7794 59.3049H48.3019L48.3019 174.403H49.7794Z" fill="#E6E6E6"/>
<path d="M46.2478 103.168L131.278 103.168V97.8804L46.2478 97.8804V103.168Z" fill="#F5F5F5"/>
<path d="M40.9666 48.8397H138.504C138.647 48.8414 138.784 48.8995 138.884 49.0014C138.985 49.1033 139.041 49.2408 139.041 49.384C139.041 49.5267 138.985 49.6635 138.884 49.7643C138.783 49.8652 138.646 49.9219 138.504 49.9219H40.9666C40.8239 49.9219 40.6871 49.8652 40.5862 49.7643C40.4854 49.6635 40.4287 49.5267 40.4287 49.384C40.4287 49.2408 40.4852 49.1033 40.5858 49.0014C40.6865 48.8995 40.8233 48.8414 40.9666 48.8397Z" fill="#E6E6E6"/>
<path d="M37.7266 49.3841C37.7317 49.9174 37.8945 50.4373 38.1945 50.8782C38.4945 51.3191 38.9183 51.6614 39.4125 51.862C39.9067 52.0626 40.4491 52.1124 40.9716 52.0052C41.494 51.898 41.9731 51.6387 42.3484 51.2597C42.7237 50.8808 42.9785 50.3993 43.0807 49.8759C43.1829 49.3524 43.1279 48.8104 42.9226 48.3182C42.7174 47.8259 42.371 47.4055 41.9272 47.1097C41.4834 46.8139 40.9621 46.656 40.4287 46.656C40.0717 46.656 39.7182 46.7267 39.3886 46.8641C39.0591 47.0016 38.76 47.2029 38.5088 47.4566C38.2575 47.7103 38.059 48.0112 37.9248 48.3421C37.7905 48.6729 37.7231 49.0271 37.7266 49.3841Z" fill="#E6E6E6"/>
<path d="M133.948 52.4102C134.142 52.4085 134.327 52.3308 134.464 52.1939C134.601 52.0569 134.679 51.8716 134.68 51.678V50.1098C134.679 49.9167 134.601 49.7321 134.464 49.5962C134.326 49.4603 134.141 49.384 133.948 49.384C133.756 49.384 133.571 49.4605 133.435 49.5966C133.299 49.7327 133.222 49.9173 133.222 50.1098V51.678C133.222 51.871 133.299 52.0563 133.434 52.1934C133.57 52.3306 133.755 52.4085 133.948 52.4102Z" fill="#E6E6E6"/>
<path d="M49.1119 52.4102C49.3056 52.4085 49.4909 52.3308 49.6278 52.1939C49.7648 52.0569 49.8425 51.8716 49.8442 51.678V50.1098C49.8424 49.9167 49.7645 49.7321 49.6274 49.5962C49.4903 49.4603 49.305 49.384 49.1119 49.384C48.9194 49.384 48.7348 49.4605 48.5987 49.5966C48.4626 49.7327 48.3862 49.9173 48.3862 50.1098V51.678C48.3861 51.871 48.4624 52.0563 48.5983 52.1934C48.7343 52.3306 48.9188 52.4085 49.1119 52.4102Z" fill="#E6E6E6"/>
<path opacity="0.5" d="M117.437 149.254H54.9763C51.3071 149.254 47.7882 147.796 45.1936 145.202C42.5991 142.607 41.1415 139.088 41.1415 135.419L41.1415 49.3841L131.272 49.3841V135.419C131.272 139.088 129.814 142.607 127.22 145.202C124.625 147.796 121.106 149.254 117.437 149.254Z" fill="#E0E0E0"/>
<path d="M122.569 49.3841C122.574 49.9177 122.737 50.4378 123.038 50.8789C123.338 51.32 123.762 51.6623 124.257 51.8626C124.751 52.063 125.294 52.1124 125.817 52.0047C126.339 51.897 126.818 51.637 127.193 51.2574C127.568 50.8779 127.823 50.3958 127.924 49.8719C128.026 49.348 127.97 48.8058 127.763 48.3137C127.557 47.8216 127.21 47.4015 126.765 47.1065C126.321 46.8115 125.798 46.6548 125.265 46.656C124.908 46.656 124.555 46.7268 124.226 46.8643C123.897 47.0018 123.598 47.2032 123.347 47.457C123.096 47.7107 122.899 48.0117 122.765 48.3425C122.631 48.6734 122.565 49.0274 122.569 49.3841Z" fill="#E6E6E6"/>
<path d="M266.568 56.2205H191.348V131.641H266.568V56.2205Z" fill="#F0F0F0"/>
<path d="M266.568 131.641H267.864V56.2205H266.568V131.641Z" fill="#E0E0E0"/>
<path d="M259.926 91.9512C259.926 74.8481 246.061 60.9833 228.958 60.9833C211.855 60.9833 197.99 74.8481 197.99 91.9512V95.9105C197.99 113.014 211.855 126.878 228.958 126.878C246.061 126.878 259.926 113.014 259.926 95.9105V91.9512Z" fill="white"/>
<path d="M240.764 79.8595H217.158C216.37 79.8595 215.732 80.4978 215.732 81.2851V106.583C215.732 107.37 216.37 108.009 217.158 108.009H240.764C241.552 108.009 242.19 107.37 242.19 106.583V81.2851C242.19 80.4978 241.552 79.8595 240.764 79.8595Z" fill="#F5F5F5"/>
<path d="M119.796 245.281H137.149V206.796H119.796V245.281Z" fill="#F0F0F0"/>
<path d="M48.2242 247.711H133.818V245.274H48.2242V247.711Z" fill="#F0F0F0"/>
<path d="M119.796 206.79H44.8934V245.275H119.796V206.79Z" fill="#F5F5F5"/>
<path d="M112.972 224.474H51.7169C51.631 224.474 51.5485 224.44 51.4878 224.379C51.427 224.318 51.3929 224.236 51.3929 224.15V211.527C51.3929 211.441 51.427 211.358 51.4878 211.298C51.5485 211.237 51.631 211.203 51.7169 211.203H112.972C113.058 211.204 113.139 211.239 113.2 211.299C113.26 211.36 113.295 211.441 113.296 211.527V224.15C113.296 224.236 113.262 224.318 113.201 224.379C113.141 224.44 113.058 224.474 112.972 224.474ZM52.0603 223.826H112.668V211.851H52.0409L52.0603 223.826Z" fill="#F0F0F0"/>
<path d="M112.972 240.862H51.7169C51.631 240.862 51.5485 240.827 51.4878 240.767C51.427 240.706 51.3929 240.624 51.3929 240.538V227.915C51.3929 227.829 51.427 227.746 51.4878 227.685C51.5485 227.625 51.631 227.591 51.7169 227.591H112.972C113.058 227.592 113.139 227.627 113.2 227.687C113.26 227.748 113.295 227.829 113.296 227.915V240.538C113.296 240.624 113.262 240.706 113.201 240.767C113.141 240.827 113.058 240.862 112.972 240.862ZM52.0603 240.214H112.668V228.239H52.0409L52.0603 240.214Z" fill="#F0F0F0"/>
<path d="M74.533 218.707H90.1433C90.5656 218.707 90.9079 218.364 90.9079 217.942V217.741C90.9079 217.319 90.5656 216.976 90.1433 216.976H74.533C74.1107 216.976 73.7683 217.319 73.7683 217.741V217.942C73.7683 218.364 74.1107 218.707 74.533 218.707Z" fill="white"/>
<path d="M74.533 235.088H90.1433C90.5656 235.088 90.9079 234.746 90.9079 234.323V234.122C90.9079 233.7 90.5656 233.358 90.1433 233.358H74.533C74.1107 233.358 73.7683 233.7 73.7683 234.122V234.323C73.7683 234.746 74.1107 235.088 74.533 235.088Z" fill="white"/>
<path d="M78.5052 200.316C78.5052 200.316 78.2978 206.796 70.3015 206.796C62.3052 206.796 62.0914 200.316 62.0914 200.316H78.5052Z" fill="#F5F5F5"/>
<path d="M97.2 200.316C97.2 200.316 96.9862 206.796 88.9898 206.796C80.9935 206.796 80.7862 200.316 80.7862 200.316H97.2Z" fill="#F5F5F5"/>
<path d="M115.927 200.316C115.927 200.316 115.72 206.796 107.717 206.796C99.7142 206.796 99.5134 200.316 99.5134 200.316H115.927Z" fill="#F5F5F5"/>
<path d="M274.545 243.842H287.641V157.976H274.545V243.842Z" fill="#F0F0F0"/>
<path d="M176.185 247.789H284.187V243.842H176.185V247.789Z" fill="#F0F0F0"/>
<path d="M274.545 157.969H172.731V243.836H274.545V157.969Z" fill="#F5F5F5"/>
<path d="M267.468 189.002H179.807V209.427H267.468V189.002Z" fill="#F0F0F0"/>
<path d="M267.468 215.745H179.807V236.17H267.468V215.745Z" fill="#F0F0F0"/>
<path d="M198.359 190.408H248.923C249.656 190.408 250.251 189.814 250.251 189.08V188.937C250.251 188.204 249.656 187.609 248.923 187.609H198.359C197.626 187.609 197.031 188.204 197.031 188.937V189.08C197.031 189.814 197.626 190.408 198.359 190.408Z" fill="#F5F5F5"/>
<path d="M198.359 217.145H248.923C249.656 217.145 250.251 216.55 250.251 215.816V215.674C250.251 214.94 249.656 214.345 248.923 214.345H198.359C197.626 214.345 197.031 214.94 197.031 215.674V215.816C197.031 216.55 197.626 217.145 198.359 217.145Z" fill="#F5F5F5"/>
<path d="M267.468 162.266H179.807V182.691H267.468V162.266Z" fill="#F0F0F0"/>
<path d="M198.359 163.672H248.923C249.656 163.672 250.251 163.077 250.251 162.343V162.201C250.251 161.467 249.656 160.873 248.923 160.873H198.359C197.626 160.873 197.031 161.467 197.031 162.201V162.343C197.031 163.077 197.626 163.672 198.359 163.672Z" fill="#F5F5F5"/>
<path d="M162 277.059C231.389 277.059 287.641 273.775 287.641 269.724C287.641 265.672 231.389 262.388 162 262.388C92.6105 262.388 36.3593 265.672 36.3593 269.724C36.3593 273.775 92.6105 277.059 162 277.059Z" fill="#F5F5F5"/>
<path d="M186.435 66.9639L186.362 67.6078L189.762 67.9933L189.835 67.3495L186.435 66.9639Z" fill="#DE4C67"/>
<path d="M171.692 65.2979L171.619 65.9418L182.649 67.1926L182.722 66.5487L171.692 65.2979Z" fill="#DE4C67"/>
<path d="M253.393 76.8483L136.807 63.6268C135.065 63.4292 133.492 64.6816 133.295 66.424L123.219 155.272C123.021 157.014 124.273 158.587 126.016 158.785L242.602 172.006C244.344 172.204 245.917 170.952 246.115 169.209L256.191 80.3611C256.388 78.6186 255.136 77.0459 253.393 76.8483Z" fill="#DE4C67"/>
<path opacity="0.7" d="M124.921 154.224L134.713 67.8521C134.747 67.547 134.842 67.2517 134.991 66.9833C135.14 66.7149 135.341 66.4787 135.582 66.2884C135.823 66.098 136.099 65.9572 136.395 65.8742C136.691 65.7911 137 65.7674 137.305 65.8044L252.454 78.8552C252.759 78.8905 253.054 78.9857 253.322 79.1352C253.59 79.2847 253.826 79.4855 254.016 79.7263C254.206 79.9671 254.347 80.243 254.43 80.5383C254.514 80.8336 254.538 81.1425 254.502 81.4472L244.685 167.787C244.651 168.092 244.557 168.388 244.408 168.657C244.259 168.926 244.058 169.162 243.817 169.353C243.576 169.543 243.299 169.684 243.003 169.766C242.707 169.849 242.398 169.872 242.093 169.834L126.943 156.777C126.338 156.702 125.787 156.393 125.409 155.915C125.031 155.437 124.856 154.83 124.921 154.224Z" fill="#263238"/>
<path d="M235.221 100.142L186.698 94.6394L186.428 97.0282L234.95 102.531L235.221 100.142Z" fill="#DE4C67"/>
<path d="M242.659 104.84L191.252 99.0104L190.981 101.399L242.388 107.229L242.659 104.84Z" fill="#DE4C67"/>
<path d="M233.409 107.649L190.816 102.819L190.545 105.208L233.138 110.038L233.409 107.649Z" fill="#DE4C67"/>
<path d="M228.535 110.957L190.386 106.63L190.115 109.019L228.264 113.346L228.535 110.957Z" fill="#DE4C67"/>
<path d="M216.221 115.839L184.697 112.264L184.426 114.653L215.95 118.228L216.221 115.839Z" fill="#DE4C67"/>
<path d="M222.235 128.104L188.387 124.265L188.116 126.654L221.964 130.493L222.235 128.104Z" fill="#DE4C67"/>
<path d="M216.865 123.635L188.818 120.454L188.547 122.843L216.594 126.024L216.865 123.635Z" fill="#DE4C67"/>
<path d="M220.139 120.147L189.252 116.644L188.981 119.033L219.868 122.536L220.139 120.147Z" fill="#DE4C67"/>
<path d="M212.928 144.903L181.404 141.328L181.133 143.717L212.657 147.292L212.928 144.903Z" fill="#DE4C67"/>
<path d="M218.936 157.167L185.087 153.329L184.817 155.717L218.665 159.556L218.936 157.167Z" fill="#DE4C67"/>
<path d="M213.202 151.577L185.258 148.472L184.993 150.852L212.938 153.957L213.202 151.577Z" fill="#DE4C67"/>
<path d="M216.84 149.21L185.953 145.707L185.682 148.096L216.569 151.599L216.84 149.21Z" fill="#DE4C67"/>
<path d="M165.716 74.2564L140.115 71.3531L139.844 73.7419L165.445 76.6451L165.716 74.2564Z" fill="white"/>
<path d="M170.348 86.3531L142.868 83.2367L142.597 85.6255L170.077 88.7419L170.348 86.3531Z" fill="white"/>
<path d="M166.072 82.0142L143.298 79.4315L143.027 81.8203L165.801 84.4029L166.072 82.0142Z" fill="white"/>
<path d="M168.802 78.4585L143.723 75.6144L143.452 78.0031L168.531 80.8472L168.802 78.4585Z" fill="white"/>
<path d="M220.936 139.536L187.087 135.698L186.817 138.086L220.665 141.925L220.936 139.536Z" fill="#DE4C67"/>
<path d="M215.566 135.067L187.519 131.886L187.248 134.275L215.295 137.456L215.566 135.067Z" fill="#DE4C67"/>
<path d="M218.84 131.579L187.953 128.076L187.682 130.465L218.569 133.968L218.84 131.579Z" fill="#DE4C67"/>
<path d="M149.338 267.138L145.055 267.041L144.459 257.1L148.742 257.198L149.338 267.138Z" fill="#FFC3BD"/>
<path d="M144.899 266.542L149.578 266.646C149.662 266.648 149.743 266.679 149.808 266.733C149.872 266.787 149.917 266.861 149.934 266.944L150.699 270.773C150.713 270.866 150.707 270.961 150.681 271.051C150.654 271.141 150.609 271.225 150.547 271.296C150.486 271.367 150.409 271.423 150.324 271.462C150.238 271.5 150.145 271.52 150.051 271.519C148.366 271.454 145.93 271.305 143.811 271.253C141.329 271.201 140.882 271.635 137.979 271.331C136.229 271.149 135.924 269.328 136.683 269.244C140.091 268.862 140.908 268.596 143.811 266.853C144.136 266.646 144.514 266.538 144.899 266.542Z" fill="#263238"/>
<path opacity="0.2" d="M144.459 257.107L144.77 262.226L149.053 262.323L148.748 257.204L144.459 257.107Z" fill="black"/>
<path d="M142.56 126.029C141.134 128.822 139.631 131.525 138.024 134.22C136.417 136.916 134.784 139.547 132.84 142.191C132.594 142.521 132.322 142.839 132.062 143.195C131.952 143.344 131.764 143.558 131.596 143.746C131.427 143.934 131.252 144.141 131.064 144.316C130.337 145.047 129.511 145.671 128.609 146.169C126.926 147.111 125.061 147.681 123.139 147.841C121.397 147.997 119.642 147.912 117.923 147.588C117.094 147.441 116.274 147.246 115.467 147.005C114.648 146.771 113.845 146.483 113.063 146.143L114.1 142.871C114.748 142.942 115.487 143.02 116.186 143.059C116.886 143.098 117.612 143.098 118.312 143.059C119.655 143.045 120.993 142.875 122.297 142.553C123.436 142.291 124.511 141.805 125.459 141.121C125.871 140.816 126.241 140.459 126.561 140.059C126.644 139.963 126.719 139.861 126.788 139.754C126.865 139.65 126.93 139.566 127.034 139.404L127.604 138.529C129.127 136.093 130.598 133.417 132.056 130.753L136.43 122.757L142.56 126.029Z" fill="#FFC3BD"/>
<path d="M146.403 121.824C147.051 125.712 138.167 137.434 138.167 137.434L131.654 129.6C133.505 126.421 135.63 123.409 138.005 120.599C141.381 116.815 145.683 117.534 146.403 121.824Z" fill="white"/>
<path opacity="0.2" d="M144.323 125.148C141.731 125.796 137.363 128.55 135.251 133.903L138.186 137.441C138.186 137.441 143.454 130.514 145.58 125.537C145.436 125.35 145.238 125.213 145.013 125.143C144.788 125.073 144.547 125.075 144.323 125.148Z" fill="black"/>
<path d="M141.808 118.15C141.808 118.15 134.978 126.859 135.432 151.995L158.507 156.168C159.304 152.656 159.589 138.367 166.024 122.297C163.561 121.345 161.04 120.552 158.475 119.925C155.242 119.142 151.966 118.549 148.664 118.15C146.382 117.972 144.09 117.972 141.808 118.15Z" fill="white"/>
<path opacity="0.2" d="M161.138 132.108C160.153 133.501 159.557 137.292 160.885 139.884C161.196 138.277 161.566 136.592 162.006 134.836L161.138 132.108Z" fill="black"/>
<path d="M148.664 118.15C148.664 118.15 145.897 123.587 149.124 126.412C154.768 125.932 158.475 119.932 158.475 119.932L148.664 118.15Z" fill="#263238"/>
<path d="M106.453 140.7L106.525 143.921L109.311 145.936L110.568 141.517L106.453 140.7Z" fill="#FFC3BD"/>
<path d="M115.532 143.208L110.568 141.517L109.311 145.936C109.311 145.936 112.201 147.193 114.495 145.508L115.532 143.208Z" fill="#FFC3BD"/>
<path d="M159.499 108.702C158.306 111.748 156.648 117.418 158.475 119.925C158.475 119.925 155.961 122.861 150.317 123.34C147.077 120.515 148.664 118.156 148.664 118.156C152.338 117.949 152.714 115.325 152.552 112.759L159.499 108.702Z" fill="#FFC3BD"/>
<path opacity="0.2" d="M156.667 110.354L152.552 112.752C152.601 113.349 152.601 113.95 152.552 114.547C154.38 115.487 155.87 114.502 156.667 112.525C156.83 111.811 156.83 111.069 156.667 110.354Z" fill="black"/>
<path d="M150.388 105.203C150.654 107.147 156.648 103.978 157.658 103.311C158.669 102.643 157.509 100.33 155.235 98.4635C152.96 96.5973 149.772 100.66 150.388 105.203Z" fill="#263238"/>
<path d="M162.687 106.097C160.853 110.043 159.985 112.447 157.127 113.718C152.837 115.662 148.567 111.832 149.183 107.419C149.733 103.447 152.636 97.6601 157.224 97.5953C158.237 97.5764 159.238 97.8169 160.131 98.2941C161.025 98.7713 161.781 99.4691 162.329 100.321C162.876 101.173 163.197 102.152 163.259 103.163C163.322 104.174 163.125 105.184 162.687 106.097Z" fill="#FFC3BD"/>
<path d="M161.067 109.791C159.123 110.082 160.497 103.44 160.853 102.287C161.209 101.133 164.294 100.077 166.037 102.449C168.13 105.345 165.603 109.117 161.067 109.791Z" fill="#263238"/>
<path d="M160.484 96.2798C158.741 95.9299 159.24 94.0831 160.523 94.1803C159.492 92.9297 153.395 91.7892 153.064 95.8327C152.734 99.8762 160.594 102.118 162.719 102.403L165.888 103.291C170.158 101.159 165.421 97.2713 160.484 96.2798Z" fill="#263238"/>
<path d="M162.901 110.873C162.099 111.62 161.034 112.018 159.939 111.981C158.494 111.916 158.216 110.516 158.993 109.389C159.687 108.365 161.287 107.166 162.564 107.782C162.838 107.922 163.074 108.129 163.249 108.382C163.424 108.636 163.533 108.93 163.566 109.236C163.6 109.543 163.556 109.853 163.44 110.139C163.324 110.424 163.139 110.677 162.901 110.873Z" fill="#FFC3BD"/>
<path d="M136.3 259.103L132.095 259.932L130.034 250.225L134.24 249.396L136.3 259.103Z" fill="#FFC3BD"/>
<path d="M131.829 259.479L136.423 258.571C136.507 258.556 136.594 258.569 136.669 258.609C136.745 258.649 136.804 258.713 136.838 258.792L138.4 262.362C138.434 262.449 138.449 262.541 138.444 262.634C138.439 262.727 138.414 262.818 138.371 262.9C138.328 262.982 138.268 263.055 138.195 263.112C138.121 263.169 138.037 263.209 137.946 263.231C136.281 263.529 133.87 263.879 131.79 264.313C129.354 264.792 128.55 264.844 125.718 265.408C123.988 265.745 123.165 264.112 123.859 263.794C127.008 262.427 128.395 262.317 130.883 260.004C131.142 259.743 131.47 259.561 131.829 259.479Z" fill="#263238"/>
<path opacity="0.2" d="M130.034 250.225L131.097 255.228L135.302 254.398L134.24 249.396L130.034 250.225Z" fill="black"/>
<path d="M130.248 260.496C129.976 260.621 129.669 260.649 129.38 260.574C129.283 260.54 129.196 260.481 129.128 260.404C129.06 260.327 129.013 260.234 128.991 260.133C128.969 260.077 128.964 260.015 128.975 259.955C128.986 259.896 129.014 259.841 129.056 259.796C129.419 259.401 131.052 259.725 131.233 259.764C131.254 259.768 131.273 259.779 131.287 259.794C131.302 259.808 131.313 259.827 131.317 259.848C131.32 259.868 131.318 259.888 131.31 259.907C131.302 259.925 131.289 259.941 131.272 259.952C130.952 260.171 130.609 260.353 130.248 260.496ZM129.328 259.848C129.284 259.863 129.245 259.887 129.211 259.919C129.211 259.919 129.166 259.978 129.211 260.055C129.225 260.124 129.256 260.188 129.301 260.242C129.346 260.295 129.405 260.336 129.47 260.36C130.008 260.403 130.541 260.238 130.961 259.9C130.417 259.773 129.853 259.755 129.302 259.848H129.328Z" fill="#DE4C67"/>
<path d="M131.226 259.932H131.175C130.663 259.854 129.509 259.284 129.425 258.766C129.413 258.688 129.428 258.609 129.469 258.541C129.509 258.474 129.571 258.423 129.645 258.396C129.717 258.363 129.796 258.345 129.875 258.345C129.955 258.345 130.033 258.363 130.105 258.396C130.753 258.61 131.259 259.764 131.285 259.809C131.295 259.825 131.3 259.843 131.3 259.861C131.3 259.879 131.295 259.897 131.285 259.913C131.269 259.926 131.248 259.933 131.226 259.932ZM129.781 258.552H129.736C129.619 258.617 129.626 258.682 129.632 258.707C129.678 258.993 130.455 259.485 130.993 259.654C130.818 259.323 130.436 258.675 130.041 258.539C129.955 258.514 129.864 258.519 129.781 258.552Z" fill="#DE4C67"/>
<path d="M135.432 151.995C135.432 151.995 125.187 190.992 122.226 204.036C119.154 217.611 129.503 254.295 129.503 254.295L136.339 252.947C136.339 252.947 133.469 215.544 134.447 209.609C138.367 195.236 150.602 154.742 150.602 154.742L135.432 151.995Z" fill="#DE4C67"/>
<path opacity="0.2" d="M136.728 184.317C136.303 189.748 136.389 195.206 136.987 200.621C139.916 190.428 143.986 176.755 146.915 166.99C143.96 168.266 137.823 172.316 136.728 184.317Z" fill="black"/>
<path d="M143.402 153.44C143.402 153.44 138.037 193.175 138.497 206.019C138.996 220.074 142.32 260.95 142.32 260.95L150.336 261.144C150.336 261.144 150.213 222.497 150.984 208.799C151.788 193.933 158.306 156.149 158.306 156.149L143.402 153.44Z" fill="#DE4C67"/>
<path d="M150.874 261.306L142.223 261.118L141.543 257.839L151.12 257.781L150.874 261.306Z" fill="#263238"/>
<path d="M137.687 252.856L129.198 254.528L127.824 251.469L137.233 249.791L137.687 252.856Z" fill="#263238"/>
<path d="M156.362 104.918C156.233 105.248 155.954 105.449 155.714 105.365C155.475 105.281 155.429 104.944 155.559 104.613C155.688 104.283 155.967 104.088 156.207 104.172C156.447 104.257 156.486 104.594 156.362 104.918Z" fill="#263238"/>
<path d="M152.636 103.466C152.507 103.79 152.228 103.991 151.988 103.907C151.749 103.823 151.703 103.486 151.833 103.162C151.962 102.838 152.241 102.63 152.481 102.714C152.721 102.799 152.766 103.136 152.636 103.466Z" fill="#263238"/>
<path d="M153.505 103.991C152.718 104.845 151.817 105.586 150.828 106.194C150.991 106.443 151.206 106.653 151.458 106.81C151.709 106.968 151.992 107.07 152.286 107.108L153.505 103.991Z" fill="#ED847E"/>
<path d="M152.228 108.702C152.214 108.698 152.201 108.69 152.19 108.681C152.179 108.671 152.171 108.659 152.165 108.646C152.159 108.632 152.156 108.618 152.156 108.603C152.156 108.589 152.159 108.574 152.165 108.561C152.171 108.547 152.179 108.535 152.19 108.526C152.201 108.516 152.214 108.509 152.228 108.504C152.242 108.5 152.257 108.498 152.271 108.5C152.286 108.502 152.3 108.507 152.312 108.514C152.712 108.699 153.149 108.788 153.589 108.773C154.029 108.758 154.46 108.641 154.846 108.43C154.858 108.421 154.871 108.415 154.885 108.412C154.898 108.409 154.913 108.409 154.927 108.411C154.941 108.414 154.954 108.419 154.966 108.427C154.978 108.435 154.988 108.446 154.996 108.458C155.003 108.47 155.008 108.483 155.01 108.498C155.013 108.512 155.012 108.526 155.008 108.54C155.004 108.554 154.998 108.567 154.989 108.578C154.98 108.589 154.969 108.598 154.956 108.605C154.543 108.84 154.079 108.971 153.604 108.988C153.129 109.005 152.657 108.907 152.228 108.702Z" fill="#263238"/>
<path d="M158.423 104.172C158.396 104.156 158.373 104.134 158.356 104.109C158.338 104.083 158.325 104.054 158.319 104.023C158.286 103.762 158.191 103.513 158.042 103.295C157.893 103.078 157.695 102.899 157.464 102.773C157.414 102.75 157.376 102.709 157.356 102.658C157.337 102.607 157.338 102.551 157.36 102.501C157.384 102.451 157.427 102.412 157.479 102.392C157.531 102.373 157.588 102.375 157.639 102.397C157.929 102.553 158.177 102.776 158.363 103.048C158.549 103.32 158.668 103.632 158.708 103.959C158.713 103.986 158.712 104.014 158.706 104.041C158.699 104.068 158.688 104.093 158.671 104.115C158.655 104.138 158.634 104.157 158.611 104.171C158.587 104.185 158.561 104.194 158.533 104.198C158.495 104.199 158.457 104.191 158.423 104.172Z" fill="#263238"/>
<path d="M151.697 101.244C151.669 101.229 151.647 101.206 151.632 101.179C151.617 101.156 151.606 101.13 151.601 101.103C151.596 101.077 151.597 101.049 151.603 101.022C151.609 100.995 151.62 100.97 151.637 100.948C151.653 100.926 151.673 100.907 151.697 100.894C151.974 100.715 152.289 100.604 152.617 100.572C152.945 100.539 153.276 100.585 153.582 100.706C153.633 100.73 153.671 100.772 153.691 100.824C153.71 100.876 153.708 100.933 153.686 100.984C153.674 101.009 153.658 101.031 153.637 101.05C153.617 101.068 153.593 101.082 153.567 101.091C153.541 101.1 153.514 101.104 153.486 101.102C153.459 101.101 153.432 101.094 153.408 101.082C153.164 100.989 152.902 100.955 152.643 100.983C152.384 101.011 152.135 101.1 151.917 101.244C151.884 101.264 151.846 101.275 151.807 101.275C151.768 101.275 151.73 101.264 151.697 101.244Z" fill="#263238"/>
<path d="M162.745 120.897L161.67 120.606C161.618 120.591 161.563 120.596 161.515 120.62C161.467 120.644 161.429 120.685 161.41 120.735C155.436 136.469 154.017 154.062 154.017 154.062L155.215 154.276C156.575 142.999 159.147 131.901 162.888 121.176C162.899 121.149 162.904 121.119 162.903 121.089C162.901 121.06 162.893 121.031 162.88 121.004C162.866 120.978 162.847 120.955 162.824 120.936C162.801 120.918 162.774 120.905 162.745 120.897Z" fill="#DE4C67"/>
<g opacity="0.99">
<path d="M155.39 154.308C155.4 154.258 155.399 154.205 155.388 154.155C155.377 154.105 155.356 154.057 155.327 154.015C155.297 153.973 155.259 153.937 155.216 153.909C155.172 153.882 155.124 153.863 155.073 153.855L154.243 153.699C154.15 153.685 154.055 153.705 153.976 153.755C153.896 153.805 153.837 153.882 153.808 153.972C153.78 154.062 153.785 154.159 153.822 154.245C153.859 154.332 153.926 154.402 154.01 154.444L153.829 155.475C153.817 155.541 153.818 155.609 153.832 155.675C153.847 155.741 153.874 155.803 153.913 155.859C153.951 155.914 154 155.961 154.057 155.998C154.114 156.034 154.177 156.059 154.243 156.071C154.31 156.083 154.378 156.081 154.444 156.067C154.51 156.053 154.572 156.025 154.627 155.987C154.683 155.948 154.73 155.899 154.766 155.843C154.803 155.786 154.828 155.722 154.84 155.656L155.028 154.626C155.115 154.62 155.197 154.586 155.263 154.529C155.329 154.471 155.373 154.394 155.39 154.308Z" fill="#263238"/>
</g>
<path d="M144.433 117.813H143.318C143.273 117.813 143.23 117.828 143.194 117.855C143.158 117.882 143.131 117.919 143.117 117.962C137.881 133.838 137.363 151.01 137.363 151.01L138.562 151.23C139.974 133.177 143.979 120.126 144.64 118.053C144.644 118.023 144.641 117.993 144.632 117.964C144.624 117.936 144.609 117.909 144.59 117.887C144.57 117.864 144.546 117.846 144.519 117.833C144.492 117.82 144.463 117.814 144.433 117.813Z" fill="#DE4C67"/>
<path opacity="0.99" d="M138.737 151.302C138.75 151.196 138.723 151.09 138.66 151.004C138.597 150.919 138.504 150.861 138.4 150.841L137.57 150.686C137.52 150.677 137.468 150.678 137.418 150.689C137.368 150.701 137.321 150.723 137.28 150.753C137.239 150.783 137.204 150.822 137.178 150.866C137.153 150.91 137.136 150.959 137.13 151.01C137.121 151.098 137.139 151.187 137.184 151.264C137.228 151.34 137.295 151.401 137.376 151.438L137.24 152.474C137.223 152.612 137.259 152.751 137.341 152.863C137.423 152.975 137.544 153.052 137.681 153.077C137.746 153.09 137.814 153.089 137.88 153.075C137.945 153.06 138.007 153.032 138.061 152.993C138.115 152.953 138.161 152.903 138.194 152.845C138.228 152.787 138.25 152.723 138.257 152.656L138.393 151.619C138.479 151.615 138.56 151.581 138.623 151.523C138.686 151.465 138.726 151.386 138.737 151.302Z" fill="#263238"/>
<path d="M143.117 267.157C142.827 267.223 142.522 267.186 142.255 267.054C142.169 266.997 142.097 266.92 142.047 266.83C141.996 266.74 141.968 266.639 141.964 266.535C141.956 266.476 141.964 266.415 141.988 266.361C142.012 266.306 142.051 266.258 142.1 266.224C142.547 265.913 144.044 266.581 144.238 266.658C144.257 266.668 144.272 266.681 144.284 266.698C144.295 266.715 144.302 266.735 144.303 266.756C144.3 266.776 144.292 266.795 144.279 266.81C144.267 266.826 144.251 266.839 144.232 266.846C143.874 266.994 143.5 267.099 143.117 267.157ZM142.353 266.328C142.306 266.331 142.261 266.347 142.223 266.373C142.202 266.387 142.186 266.407 142.177 266.43C142.168 266.453 142.166 266.479 142.171 266.503C142.173 266.574 142.191 266.643 142.225 266.705C142.259 266.767 142.307 266.82 142.366 266.859C142.88 267.016 143.435 266.967 143.914 266.723C143.424 266.493 142.894 266.359 142.353 266.328Z" fill="#DE4C67"/>
<path d="M144.212 266.853H144.161C143.675 266.665 142.677 265.835 142.703 265.337C142.709 265.259 142.741 265.185 142.794 265.128C142.847 265.07 142.917 265.032 142.994 265.019C143.072 265 143.153 264.996 143.232 265.01C143.311 265.023 143.387 265.053 143.454 265.097C144.012 265.44 144.29 266.678 144.297 266.73C144.301 266.748 144.301 266.768 144.295 266.786C144.289 266.804 144.279 266.821 144.264 266.833C144.257 266.84 144.249 266.845 144.24 266.848C144.231 266.852 144.222 266.853 144.212 266.853ZM143.098 265.213H143.046C142.916 265.252 142.916 265.317 142.91 265.343C142.91 265.635 143.558 266.276 144.044 266.555C143.943 266.063 143.7 265.613 143.344 265.259C143.27 265.214 143.183 265.198 143.098 265.213Z" fill="#DE4C67"/>
<path d="M146.098 167.054L149.72 169.614L152.436 167.612L148.962 163.38L146.098 167.054Z" fill="#FFC3BD"/>
<path d="M154.088 162.609L148.962 163.38L152.436 167.612C152.436 167.612 155.993 166.743 155.799 163.892L154.088 162.609Z" fill="#FFC3BD"/>
<path d="M169.186 129.004C169.381 132.386 169.484 135.756 169.504 139.151C169.504 140.843 169.504 142.541 169.504 144.251C169.504 145.1 169.471 145.955 169.426 146.843L169.361 148.139L169.329 148.787C169.329 149.092 169.264 149.435 169.219 149.759C169.024 150.89 168.652 151.984 168.117 152.999C167.652 153.877 167.124 154.719 166.536 155.52C165.44 156.984 164.224 158.354 162.901 159.615C160.365 162.036 157.593 164.196 154.626 166.063L152.526 163.341C153.654 162.201 154.833 161.015 155.922 159.797C157.01 158.579 158.093 157.367 159.084 156.123C160.055 154.925 160.941 153.66 161.734 152.338C162.083 151.741 162.388 151.12 162.648 150.479C162.858 149.978 162.996 149.45 163.056 148.91C163.05 148.813 163.05 148.716 163.056 148.619V148.023L163.024 146.804L162.92 144.335L162.648 139.32C162.48 135.989 162.343 132.633 162.253 129.295L169.186 129.004Z" fill="#FFC3BD"/>
<path d="M166.024 122.297C171.564 124.358 171.519 139.177 171.519 139.177L162.143 140.901C162.143 140.901 159.875 134.168 160.996 128.868C162.065 123.807 161.812 120.722 166.024 122.297Z" fill="white"/>
<path d="M94.5043 141.361L69.3878 131.952L64.975 105.501L85.711 88.452L110.808 97.848L115.221 124.306L94.5043 141.361ZM70.4441 131.084L94.2775 140.007L113.918 123.807L109.732 98.7099L85.8989 89.7869L66.258 105.987L70.4441 131.084Z" fill="#DE4C67"/>
<path d="M89.0671 91.4733C90.3586 89.6647 89.9394 87.1515 88.1308 85.86C86.3221 84.5685 83.8089 84.9877 82.5174 86.7963C81.2259 88.605 81.6451 91.1182 83.4537 92.4097C85.2624 93.7012 87.7756 93.282 89.0671 91.4733Z" fill="#DE4C67"/>
<path d="M97.6597 143.021C98.9513 141.213 98.5321 138.7 96.7234 137.408C94.9148 136.117 92.4016 136.536 91.1101 138.344C89.8185 140.153 90.2377 142.666 92.0464 143.958C93.855 145.249 96.3682 144.83 97.6597 143.021Z" fill="#DE4C67"/>
<path d="M107.924 101.567C107.277 101.105 106.781 100.46 106.499 99.7158C106.218 98.9712 106.163 98.1598 106.343 97.3844C106.523 96.6089 106.929 95.9042 107.509 95.3593C108.089 94.8144 108.818 94.4539 109.603 94.3233C110.388 94.1927 111.195 94.298 111.92 94.6257C112.646 94.9535 113.258 95.489 113.679 96.1646C114.1 96.8402 114.311 97.6255 114.285 98.4211C114.26 99.2167 113.999 99.9869 113.536 100.634C112.915 101.502 111.976 102.087 110.923 102.262C109.871 102.437 108.792 102.187 107.924 101.567Z" fill="#DE4C67"/>
<path d="M63.2707 108.974C62.6226 108.512 62.126 107.868 61.8438 107.124C61.5617 106.38 61.5066 105.569 61.6855 104.793C61.8644 104.017 62.2693 103.312 62.8489 102.767C63.4286 102.221 64.157 101.86 64.942 101.729C65.7271 101.597 66.5334 101.701 67.2592 102.028C67.9849 102.355 68.5974 102.89 69.0192 103.565C69.441 104.24 69.6531 105.025 69.6288 105.821C69.6044 106.616 69.3447 107.387 68.8824 108.035C68.2616 108.902 67.3225 109.488 66.2707 109.664C65.2188 109.84 64.1401 109.592 63.2707 108.974Z" fill="#DE4C67"/>
<path d="M112.227 127.39C111.58 126.928 111.084 126.284 110.803 125.539C110.522 124.795 110.467 123.984 110.647 123.209C110.826 122.434 111.231 121.73 111.811 121.185C112.391 120.64 113.119 120.279 113.903 120.148C114.688 120.016 115.494 120.121 116.22 120.447C116.945 120.774 117.557 121.308 117.979 121.983C118.401 122.657 118.613 123.442 118.59 124.237C118.566 125.032 118.307 125.803 117.845 126.451C117.538 126.882 117.15 127.248 116.701 127.528C116.252 127.809 115.753 127.998 115.231 128.086C114.709 128.173 114.175 128.156 113.66 128.037C113.144 127.918 112.658 127.698 112.227 127.39Z" fill="#DE4C67"/>
<path d="M67.5799 134.784C66.9322 134.321 66.4362 133.677 66.1547 132.932C65.8733 132.188 65.8189 131.376 65.9987 130.601C66.1784 129.825 66.584 129.121 67.1644 128.576C67.7447 128.031 68.4735 127.67 69.2588 127.54C70.044 127.409 70.8503 127.515 71.5757 127.842C72.3012 128.17 72.9131 128.706 73.3341 129.381C73.7551 130.057 73.9662 130.842 73.9409 131.638C73.9155 132.433 73.6548 133.203 73.1916 133.851C72.8848 134.281 72.4962 134.647 72.0479 134.926C71.5997 135.206 71.1006 135.395 70.5794 135.482C70.0581 135.568 69.5248 135.551 69.0101 135.432C68.4954 135.312 68.0094 135.092 67.5799 134.784Z" fill="#DE4C67"/>
<path d="M81.6091 108.216L86.683 107.367L88.1669 116.264C88.4611 117.694 88.5333 119.16 88.3807 120.612C88.1798 121.7 87.621 122.69 86.7931 123.425C85.7634 124.339 84.4795 124.918 83.1125 125.083C81.811 125.375 80.4611 125.375 79.1597 125.083C78.2033 124.804 77.3539 124.241 76.7232 123.47C76.0306 122.576 75.5498 121.537 75.317 120.431L80.0409 118.96C80.1174 119.506 80.2724 120.039 80.501 120.541C80.6693 120.858 80.9289 121.118 81.2462 121.286C81.5182 121.402 81.8198 121.429 82.1081 121.364C82.3566 121.34 82.5939 121.249 82.7947 121.1C82.9956 120.952 83.1524 120.752 83.2486 120.521C83.4533 119.808 83.4689 119.053 83.2939 118.331L81.6091 108.216Z" fill="#263238"/>
<path d="M90.9986 117.897L95.7679 116.796C95.9256 117.427 96.2475 118.006 96.701 118.474C97.021 118.766 97.4062 118.977 97.8244 119.09C98.2426 119.202 98.6818 119.213 99.1051 119.122C99.7104 119.063 100.273 118.784 100.686 118.338C100.846 118.166 100.964 117.96 101.032 117.735C101.101 117.511 101.118 117.274 101.082 117.042C101.04 116.823 100.952 116.615 100.822 116.434C100.692 116.252 100.524 116.102 100.33 115.992C99.459 115.626 98.5199 115.452 97.5758 115.48C95.2733 115.351 93.5798 114.951 92.4955 114.281C91.9739 113.97 91.5286 113.546 91.1922 113.04C90.8559 112.535 90.6369 111.96 90.5515 111.359C90.4155 110.508 90.5327 109.636 90.8885 108.851C91.2981 107.967 91.9612 107.225 92.7936 106.719C93.9905 106.033 95.3123 105.592 96.6816 105.423C98.7768 105.073 100.438 105.196 101.665 105.792C102.316 106.135 102.885 106.615 103.332 107.199C103.78 107.783 104.095 108.457 104.257 109.175L99.5328 110.251C99.4676 109.948 99.3409 109.662 99.1607 109.411C98.9804 109.159 98.7505 108.947 98.485 108.788C98.2196 108.629 97.9243 108.526 97.6174 108.485C97.3105 108.445 96.9986 108.468 96.701 108.553C96.212 108.592 95.7526 108.803 95.405 109.149C95.2833 109.28 95.1932 109.436 95.1415 109.607C95.0898 109.778 95.078 109.958 95.107 110.134C95.1341 110.272 95.1918 110.401 95.276 110.514C95.3601 110.626 95.4685 110.718 95.593 110.782C96.1634 111.017 96.778 111.125 97.3944 111.1C99.0793 111.12 100.756 111.338 102.39 111.748C103.309 112.003 104.137 112.51 104.782 113.212C105.341 113.873 105.707 114.676 105.838 115.532C106.016 116.563 105.88 117.624 105.449 118.578C105.009 119.578 104.277 120.423 103.35 121.001C102.179 121.709 100.876 122.168 99.5198 122.349C96.7334 122.815 94.716 122.599 93.4675 121.701C92.2133 120.772 91.3366 119.421 90.9986 117.897Z" fill="#263238"/>
</svg>
