<svg width="294" height="294" viewBox="0 0 294 294" fill="none" xmlns="http://www.w3.org/2000/svg">
<path d="M245.237 130.571C246.143 106.222 237.387 81.5733 218.101 69.8368C208.581 64.045 197.45 60.6522 186.314 61.152C174.366 61.6871 163.117 66.5499 151.851 70.56C140.585 74.5702 128.384 77.7807 116.771 74.9348C108.368 72.8709 100.977 67.7906 92.6629 65.468C59.9054 56.354 31.3816 93.4921 47.4104 123.045C51.3442 130.289 57.4064 136.099 62.5044 142.59C67.6024 149.082 71.8771 156.902 71.1892 165.122C70.6012 171.919 66.7439 177.982 65.1386 184.614C62.0693 197.315 68.161 211.298 78.692 219.036C89.2231 226.774 103.429 228.603 116.106 225.422C128.784 222.241 139.973 214.438 148.782 204.777C153.486 199.608 158.09 193.558 164.863 191.806C171.331 190.118 178.058 192.858 184.644 194.116C190.737 195.245 196.997 195.118 203.04 193.744C209.083 192.37 214.782 189.778 219.789 186.126C235.723 174.354 244.426 152.586 245.237 130.571Z" fill="#DE4C67"/>
<path opacity="0.7" d="M245.237 130.571C246.143 106.222 237.387 81.5733 218.101 69.8368C208.581 64.045 197.45 60.6522 186.314 61.152C174.366 61.6871 163.117 66.5499 151.851 70.56C140.585 74.5702 128.384 77.7807 116.771 74.9348C108.368 72.8709 100.977 67.7906 92.6629 65.468C59.9054 56.354 31.3816 93.4921 47.4104 123.045C51.3442 130.289 57.4064 136.099 62.5044 142.59C67.6024 149.082 71.8771 156.902 71.1892 165.122C70.6012 171.919 66.7439 177.982 65.1386 184.614C62.0693 197.315 68.161 211.298 78.692 219.036C89.2231 226.774 103.429 228.603 116.106 225.422C128.784 222.241 139.973 214.438 148.782 204.777C153.486 199.608 158.09 193.558 164.863 191.806C171.331 190.118 178.058 192.858 184.644 194.116C190.737 195.245 196.997 195.118 203.04 193.744C209.083 192.37 214.782 189.778 219.789 186.126C235.723 174.354 244.426 152.586 245.237 130.571Z" fill="white"/>
<path d="M145.113 268.163C189.021 268.163 224.616 259.51 224.616 248.836C224.616 238.161 189.021 229.508 145.113 229.508C101.204 229.508 65.609 238.161 65.609 248.836C65.609 259.51 101.204 268.163 145.113 268.163Z" fill="#DE4C67"/>
<path opacity="0.5" d="M145.113 268.163C189.021 268.163 224.616 259.51 224.616 248.836C224.616 238.161 189.021 229.508 145.113 229.508C101.204 229.508 65.609 238.161 65.609 248.836C65.609 259.51 101.204 268.163 145.113 268.163Z" fill="white"/>
<path d="M63.7568 117.618L64.286 117.882" stroke="#263238" stroke-linecap="round" stroke-linejoin="round"/>
<path d="M65.3327 118.411L144.548 158.201" stroke="#263238" stroke-linecap="round" stroke-linejoin="round" stroke-dasharray="2 2"/>
<path d="M145.071 158.46L145.601 158.725L145.307 158.213" stroke="#263238" stroke-linecap="round" stroke-linejoin="round"/>
<path d="M144.736 157.202L95.6676 70.3778" stroke="#263238" stroke-linecap="round" stroke-linejoin="round" stroke-dasharray="1.98 1.98"/>
<path d="M95.3795 69.872L95.0913 69.3605" stroke="#263238" stroke-linecap="round" stroke-linejoin="round"/>
<path d="M227.409 117.618L226.88 117.882" stroke="#263238" stroke-linecap="round" stroke-linejoin="round"/>
<path d="M225.833 118.411L146.618 158.201" stroke="#263238" stroke-linecap="round" stroke-linejoin="round" stroke-dasharray="2 2"/>
<path d="M146.094 158.46L145.565 158.725L145.853 158.213" stroke="#263238" stroke-linecap="round" stroke-linejoin="round"/>
<path d="M146.43 157.202L195.498 70.3778" stroke="#263238" stroke-linecap="round" stroke-linejoin="round" stroke-dasharray="1.98 1.98"/>
<path d="M195.786 69.872L196.074 69.3605" stroke="#263238" stroke-linecap="round" stroke-linejoin="round"/>
<path d="M145.601 158.725V158.137" stroke="#263238" stroke-linecap="round" stroke-linejoin="round"/>
<path d="M145.601 156.955V53.1317" stroke="#263238" stroke-linecap="round" stroke-linejoin="round" stroke-dasharray="2.02 2.02"/>
<path d="M145.601 52.5378V51.9498" stroke="#263238" stroke-linecap="round" stroke-linejoin="round"/>
<path d="M126.003 186.243L125.832 251.664C125.813 251.827 125.859 251.991 125.959 252.122C126.058 252.252 126.205 252.339 126.367 252.364C126.526 252.342 126.67 252.26 126.77 252.136C126.871 252.011 126.92 251.853 126.908 251.693L128.184 186.32L126.003 186.243Z" fill="white" stroke="#263238" stroke-linecap="round" stroke-linejoin="round"/>
<path d="M167.404 184.138L167.562 241.221C167.576 241.359 167.536 241.497 167.451 241.607C167.365 241.716 167.241 241.789 167.104 241.809C166.967 241.789 166.843 241.716 166.759 241.606C166.674 241.497 166.636 241.359 166.651 241.221L165.563 184.185L167.404 184.138Z" fill="white" stroke="#263238" stroke-linecap="round" stroke-linejoin="round"/>
<path d="M125.362 184.138L125.52 241.221C125.534 241.359 125.494 241.497 125.409 241.607C125.323 241.716 125.199 241.789 125.062 241.809C124.925 241.789 124.801 241.716 124.717 241.606C124.632 241.497 124.594 241.359 124.609 241.221L123.521 184.185L125.362 184.138Z" fill="white" stroke="#263238" stroke-linecap="round" stroke-linejoin="round"/>
<path d="M166.222 186.243L166.404 251.664C166.423 251.827 166.377 251.991 166.277 252.122C166.178 252.252 166.031 252.339 165.869 252.364C165.711 252.34 165.568 252.259 165.467 252.134C165.367 252.01 165.317 251.853 165.328 251.693L164.052 186.32L166.222 186.243Z" fill="white" stroke="#263238" stroke-linecap="round" stroke-linejoin="round"/>
<path d="M145.824 190.824C160.275 190.824 171.99 188.146 171.99 184.844C171.99 181.541 160.275 178.864 145.824 178.864C131.373 178.864 119.658 181.541 119.658 184.844C119.658 188.146 131.373 190.824 145.824 190.824Z" fill="#DE4C67" stroke="#263238" stroke-linecap="round" stroke-linejoin="round"/>
<path d="M130.83 160.442C130.83 160.442 125.244 168.968 125.244 174.26C125.244 179.552 128.772 183.962 131.418 185.432C134.064 186.902 161.112 185.726 161.112 185.726C161.112 185.726 168.462 181.316 167.58 173.966C166.845 167.833 161.994 160.736 161.994 160.736L130.83 160.442Z" fill="#263238" stroke="#263238" stroke-linecap="round" stroke-linejoin="round"/>
<path d="M141.708 241.88C141.708 241.88 140.238 250.7 137.886 254.228C135.534 257.756 132.006 256.874 132.3 252.758C132.594 248.642 136.416 241.88 136.416 241.88H141.708Z" fill="white" stroke="#263238" stroke-linecap="round" stroke-linejoin="round"/>
<path d="M132.729 250.488C132.729 251.87 133.153 253.334 134.705 253.881C136.686 254.581 138.662 251.593 140.079 248.983C140.756 246.641 141.306 244.264 141.726 241.862H136.434C136.434 241.862 133.788 246.566 132.729 250.488Z" fill="#263238" stroke="#263238" stroke-linecap="round" stroke-linejoin="round"/>
<path d="M138.18 168.968C138.18 168.968 143.766 172.496 145.236 176.906C146.706 181.316 142.002 241.88 142.002 241.88H136.71C136.71 241.88 134.358 217.184 132.594 208.658C130.83 200.132 133.476 188.666 133.476 186.902C133.476 185.138 125.832 188.96 125.244 174.26" fill="#263238"/>
<path d="M138.18 168.968C138.18 168.968 143.766 172.496 145.236 176.906C146.706 181.316 142.002 241.88 142.002 241.88H136.71C136.71 241.88 134.358 217.184 132.594 208.658C130.83 200.132 133.476 188.666 133.476 186.902C133.476 185.138 125.832 188.96 125.244 174.26" stroke="#263238" stroke-linecap="round" stroke-linejoin="round"/>
<path d="M150.234 241.88C150.234 241.88 151.704 250.7 154.056 254.228C156.408 257.756 159.936 256.874 159.642 252.758C159.348 248.642 155.526 241.88 155.526 241.88H150.234Z" fill="white" stroke="#263238" stroke-linecap="round" stroke-linejoin="round"/>
<path d="M157.055 253.516C158.507 253.516 159.166 252.57 159.407 251.335C158.537 247.254 155.502 241.88 155.502 241.88H150.21C150.21 241.88 150.704 244.849 151.581 248.03C152.945 250.553 154.967 253.516 157.055 253.516Z" fill="#263238" stroke="#263238" stroke-linecap="round" stroke-linejoin="round"/>
<path d="M153.78 168.968C153.78 168.968 148.194 172.496 146.724 176.906C145.254 181.316 149.958 241.88 149.958 241.88H155.25C155.25 241.88 157.602 217.184 159.366 208.658C161.13 200.132 158.484 188.666 158.484 186.902C158.484 185.138 166.992 188.666 167.58 173.966" fill="#263238"/>
<path d="M153.78 168.968C153.78 168.968 148.194 172.496 146.724 176.906C145.254 181.316 149.958 241.88 149.958 241.88H155.25C155.25 241.88 157.602 217.184 159.366 208.658C161.13 200.132 158.484 188.666 158.484 186.902C158.484 185.138 166.992 188.666 167.58 173.966" stroke="#263238" stroke-linecap="round" stroke-linejoin="round"/>
<path d="M79.7504 166.516L79.4623 237.799C79.4623 238.024 79.5515 238.239 79.7103 238.398C79.8691 238.556 80.0845 238.646 80.309 238.646C80.528 238.646 80.7384 238.56 80.8954 238.408C81.0525 238.255 81.1437 238.047 81.1499 237.828L83.1844 166.616L79.7504 166.516Z" fill="white" stroke="#263238" stroke-linecap="round" stroke-linejoin="round"/>
<path d="M74.9523 183.18L74.676 256.874C74.6752 256.985 74.6966 257.096 74.7388 257.199C74.7811 257.302 74.8435 257.395 74.9222 257.474C75.001 257.553 75.0947 257.615 75.1978 257.658C75.3008 257.7 75.4113 257.721 75.5227 257.72C75.7413 257.721 75.9515 257.636 76.1093 257.485C76.2671 257.334 76.3603 257.127 76.3694 256.909L78.398 183.274L74.9523 183.18Z" fill="white" stroke="#263238" stroke-linecap="round" stroke-linejoin="round"/>
<path d="M213.579 166.516L213.867 237.799C213.868 237.91 213.847 238.02 213.805 238.123C213.763 238.225 213.701 238.319 213.623 238.397C213.545 238.476 213.452 238.539 213.35 238.581C213.247 238.624 213.137 238.646 213.027 238.646C212.807 238.646 212.596 238.561 212.438 238.408C212.28 238.256 212.187 238.048 212.18 237.828L210.151 166.616L213.579 166.516Z" fill="white" stroke="#263238" stroke-linecap="round" stroke-linejoin="round"/>
<path d="M218.383 183.18L218.671 256.874C218.672 256.985 218.651 257.096 218.608 257.199C218.566 257.302 218.504 257.395 218.425 257.474C218.346 257.553 218.253 257.615 218.15 257.658C218.046 257.7 217.936 257.721 217.825 257.72C217.607 257.721 217.397 257.636 217.24 257.485C217.083 257.333 216.991 257.127 216.984 256.909L214.955 183.274L218.383 183.18Z" fill="white" stroke="#263238" stroke-linecap="round" stroke-linejoin="round"/>
<path d="M221.358 179.193L219.242 177.288L214.35 166.704C214.117 166.222 213.753 165.817 213.299 165.535C212.845 165.253 212.32 165.105 211.786 165.11H81.485C80.9496 165.104 80.4234 165.251 79.9683 165.533C79.5132 165.815 79.148 166.221 78.9155 166.704L72.8179 179.928L71.8124 179.558V182.574L71.8595 182.539C71.9182 182.942 72.1221 183.309 72.4329 183.572C72.7437 183.836 73.1399 183.976 73.547 183.968H219.718C220.146 183.977 220.562 183.82 220.877 183.53C221.192 183.239 221.381 182.837 221.406 182.409L221.358 179.193Z" fill="#263238" stroke="#263238" stroke-linecap="round" stroke-linejoin="round"/>
<path d="M219.718 181.169H73.547C73.2724 181.18 72.9996 181.121 72.754 180.997C72.5084 180.874 72.2982 180.69 72.143 180.463C71.9879 180.236 71.8929 179.974 71.867 179.7C71.841 179.427 71.885 179.151 71.9947 178.899L78.9155 163.946C79.1468 163.463 79.5118 163.056 79.9672 162.774C80.4225 162.491 80.9493 162.345 81.485 162.353H211.786C212.321 162.346 212.846 162.493 213.3 162.775C213.755 163.057 214.119 163.464 214.35 163.946L221.276 178.899C221.384 179.152 221.427 179.427 221.4 179.701C221.373 179.974 221.278 180.236 221.122 180.463C220.967 180.689 220.756 180.873 220.511 180.996C220.265 181.12 219.993 181.179 219.718 181.169Z" fill="white" stroke="#263238" stroke-linecap="round" stroke-linejoin="round"/>
<path d="M143.984 116.277C143.984 116.277 139.491 117.077 137.357 118.476C135.222 119.876 127.52 122.486 126.449 124.286C125.379 126.085 118.752 149.528 118.535 151.334C118.317 153.139 120.464 154.938 123.027 154.938C125.591 154.938 131.583 138.315 131.583 138.315L134.146 146.73L128.131 164.37H164.352L159.807 146.142L162.159 137.322L170.073 156.726C170.073 156.726 173.495 160.13 175.63 156.326C177.764 152.521 170.926 137.698 170.285 134.693C169.644 131.688 167.08 124.697 165.152 122.475C163.223 120.252 157.672 118.065 154.462 116.865C151.251 115.665 147.406 116.077 143.984 116.277Z" fill="#DE4C67" stroke="#263238" stroke-linecap="round" stroke-linejoin="round"/>
<path d="M164.023 130.424L162.159 137.31L164.687 134.088" stroke="#263238" stroke-linecap="round" stroke-linejoin="round"/>
<path d="M129.095 130.095L131.583 138.309L127.767 133.423" stroke="#263238" stroke-linecap="round" stroke-linejoin="round"/>
<path d="M146.765 128.496C153.233 128.654 155.232 121.71 155.45 117.253L154.462 116.877C151.257 115.701 147.406 116.077 143.984 116.289C142.329 116.591 140.703 117.03 139.121 117.6C139.356 121.128 140.644 128.343 146.765 128.496Z" fill="white" stroke="#263238" stroke-linecap="round" stroke-linejoin="round"/>
<path d="M146.765 128.496L132.864 164.146H159.807L146.765 128.496Z" fill="white" stroke="#263238" stroke-linecap="round" stroke-linejoin="round"/>
<path d="M172.948 153.062C172.948 153.062 169.168 153.85 167.903 155.955C166.639 158.06 165.099 161.206 163.558 163.047L168.045 165.399C168.045 165.399 172.807 161.87 174.63 160.406C175.607 159.626 176.272 158.521 176.504 157.292C176.736 156.063 176.52 154.792 175.894 153.709" fill="#DE4C67"/>
<path d="M172.948 153.062C172.948 153.062 169.168 153.85 167.903 155.955C166.639 158.06 165.099 161.206 163.558 163.047L168.045 165.399C168.045 165.399 172.807 161.87 174.63 160.406C175.607 159.626 176.272 158.521 176.504 157.292C176.736 156.063 176.52 154.792 175.894 153.709" stroke="#263238" stroke-linecap="round" stroke-linejoin="round"/>
<path d="M172.108 156.873C169.973 155.944 168.468 156.185 167.527 156.59C166.351 158.654 164.952 161.383 163.558 163.058L168.045 165.41C168.045 165.41 172.807 161.882 174.63 160.418C174.881 160.218 175.113 159.996 175.324 159.754C174.598 158.466 173.467 157.453 172.108 156.873Z" fill="white" stroke="#263238" stroke-linecap="round" stroke-linejoin="round"/>
<path d="M163.976 162.335C163.976 162.335 162.012 162.071 160.889 162.729C159.765 163.388 157.525 166.01 158.225 166.404C158.925 166.798 160.33 164.305 161.03 164.305C161.795 164.398 162.548 164.573 163.276 164.828L163.976 162.335Z" fill="white" stroke="#263238" stroke-linecap="round" stroke-linejoin="round"/>
<path d="M167.392 162.382C167.392 162.382 164.728 161.594 163.188 161.853C161.647 162.112 159.542 166.322 158.842 167.633C158.143 168.944 158.701 169.338 159.26 168.944C159.818 168.55 161.647 165.663 161.647 165.663L160.101 169.344C160.178 169.49 160.31 169.599 160.467 169.648C160.624 169.698 160.795 169.684 160.941 169.609C161.529 169.344 163.476 165.399 163.476 165.399L162.347 169.479C162.446 169.601 162.578 169.69 162.728 169.736C162.878 169.782 163.038 169.783 163.188 169.738C163.776 169.609 165.287 166.328 165.287 166.328C165.287 166.328 163.887 170.132 164.305 170.267C164.607 170.286 164.908 170.207 165.162 170.04C165.415 169.874 165.608 169.629 165.71 169.344C166.537 167.957 167.475 166.639 168.515 165.404C169.215 164.64 168.932 163.035 167.392 162.382Z" fill="white" stroke="#263238" stroke-linecap="round" stroke-linejoin="round"/>
<path d="M161.647 165.663L162.941 163.734" stroke="#263238" stroke-linecap="round" stroke-linejoin="round"/>
<path d="M163.476 165.393L164.064 163.923" stroke="#263238" stroke-linecap="round" stroke-linejoin="round"/>
<path d="M165.287 166.322L165.804 164.787" stroke="#263238" stroke-linecap="round" stroke-linejoin="round"/>
<path d="M135.205 107.604C135.205 107.604 136.116 109.956 134.476 113.99C132.835 118.023 133.741 123.986 134.84 126.926C135.94 129.866 137.939 133.129 138.486 132.4C139.033 131.671 140.126 123.28 140.309 117.629C140.491 111.979 139.944 107.963 138.668 106.14C137.392 104.317 135.022 105.252 135.205 107.604Z" fill="#263238"/>
<path d="M138.486 132.394C138.486 132.394 137.21 135.857 137.21 138.409C137.21 140.961 140.309 142.42 140.309 142.42C140.309 142.42 141.949 139.685 141.402 136.951C140.855 134.217 138.486 132.394 138.486 132.394Z" fill="#263238"/>
<path d="M135.716 104.588C135.716 104.588 134.376 102.271 133.323 103.465C132.271 104.658 134.17 107.404 135.222 108.316C136.275 109.227 137.051 108.668 136.986 107.686C136.922 106.704 135.716 104.588 135.716 104.588Z" fill="white" stroke="#263238" stroke-linecap="round" stroke-linejoin="round"/>
<path d="M156.996 104.588C156.996 104.588 158.331 102.271 159.389 103.465C160.448 104.658 158.542 107.404 157.49 108.316C156.437 109.227 155.655 108.668 155.726 107.686C155.796 106.704 156.996 104.588 156.996 104.588Z" fill="white" stroke="#263238" stroke-linecap="round" stroke-linejoin="round"/>
<path d="M149.94 122.986C150.493 120.046 150.822 116.054 150.822 116.054C150.822 116.054 144.207 116.971 142.002 115.707C142.002 115.707 142.949 119.946 144.019 123.145" fill="white"/>
<path d="M149.94 122.986C150.493 120.046 150.822 116.054 150.822 116.054C150.822 116.054 144.207 116.971 142.002 115.707C142.002 115.707 142.949 119.946 144.019 123.145" stroke="#263238" stroke-linecap="round" stroke-linejoin="round"/>
<path d="M135.857 105.364C135.857 105.364 137.686 111.832 141.149 115.636C144.613 119.44 145.853 120.34 147.694 120.064C149.534 119.787 151.492 117.394 154.232 112.42C156.972 107.445 157.172 103.6 157.402 103.276C157.631 102.953 156.814 95.891 152.898 92.8628C148.982 89.8346 144.595 88.5058 140.797 91.8103C136.998 95.1149 134.587 100.507 135.857 105.364Z" fill="white" stroke="#263238" stroke-linecap="round" stroke-linejoin="round"/>
<path d="M147.676 108.739C147.458 110.112 147.34 111.5 147.323 112.89C147.394 114.295 147.817 114.719 147.182 114.86C146.547 115.001 145.824 114.013 145.824 114.013" stroke="#263238" stroke-linecap="round" stroke-linejoin="round"/>
<path d="M145.73 116.624H147.723" stroke="#263238" stroke-linecap="round" stroke-linejoin="round"/>
<path d="M145.13 107.498C145.13 107.498 143.79 104.188 139.362 105.734" stroke="#263238" stroke-linecap="round" stroke-linejoin="round"/>
<path d="M148.817 107.087C148.817 107.087 149.94 103.853 153.95 105.752" stroke="#263238" stroke-linecap="round" stroke-linejoin="round"/>
<path d="M142.99 108.974C142.99 109.615 142.731 110.15 142.402 110.15C142.073 110.15 141.814 109.627 141.814 108.974C141.814 108.321 142.073 107.798 142.402 107.798C142.731 107.798 142.99 108.327 142.99 108.974Z" fill="#263238"/>
<path d="M150.716 110.138C151.038 110.138 151.298 109.617 151.298 108.974C151.298 108.331 151.038 107.81 150.716 107.81C150.395 107.81 150.134 108.331 150.134 108.974C150.134 109.617 150.395 110.138 150.716 110.138Z" fill="#263238"/>
<path d="M145.624 110.185C145.624 111.62 143.972 112.784 141.931 112.784C139.891 112.784 138.239 111.608 138.239 110.185C138.239 108.762 139.779 108.139 141.82 108.139C143.86 108.139 145.624 108.745 145.624 110.185Z" stroke="#263238" stroke-width="1.5" stroke-linecap="round" stroke-linejoin="round"/>
<path d="M154.985 110.185C154.985 111.62 153.333 112.784 151.292 112.784C149.252 112.784 147.594 111.608 147.594 110.185C147.594 108.762 149.14 108.139 151.181 108.139C153.221 108.139 154.985 108.745 154.985 110.185Z" stroke="#263238" stroke-width="1.5" stroke-linecap="round" stroke-linejoin="round"/>
<path d="M145.412 109.233C145.412 109.233 146.324 108.686 147.764 109.415" stroke="#263238" stroke-width="1.5" stroke-linecap="round" stroke-linejoin="round"/>
<path d="M152.486 86.7947C144.53 83.3784 138.962 86.7947 138.962 86.7947C138.413 87.0967 137.898 87.4575 137.427 87.8708C134.717 90.311 133.064 94.9268 133.276 98.7723C133.514 101.323 134.439 103.761 135.951 105.828C137.92 104.419 139.553 102.592 140.732 100.477C141.611 98.9243 142.396 97.3201 143.084 95.6735C143.084 97.3964 143.307 99.4779 144.213 100.966C144.867 102.14 145.824 103.117 146.985 103.795C148.145 104.474 149.466 104.829 150.81 104.823C151.274 104.829 151.738 104.784 152.192 104.688C152.232 104.678 152.269 104.659 152.302 104.634C152.334 104.609 152.361 104.577 152.38 104.541C154.65 105.023 156.908 104.982 157.255 104.499C157.813 103.729 158.607 101.324 158.872 98.3842C159.295 93.398 156.155 89.0703 152.486 86.7947ZM144.701 100.607C143.56 98.7429 143.595 95.7029 143.731 93.9565L143.807 93.7566C143.861 95.5528 144.319 97.3136 145.147 98.9087C145.974 100.504 147.15 101.892 148.588 102.971C149.382 103.519 150.262 103.931 151.192 104.188C149.752 104.282 146.788 104.011 144.701 100.607Z" fill="#263238"/>
<path d="M144.801 91.3694C144.801 91.3694 144.319 94.9327 148.846 98.4254C153.374 101.918 157.666 100.542 157.666 100.542" stroke="white" stroke-width="0.5" stroke-linecap="round" stroke-linejoin="round"/>
<path d="M145.465 90.1581C145.465 90.1581 150.234 97.1024 156.82 95.2913" stroke="white" stroke-width="0.5" stroke-linecap="round" stroke-linejoin="round"/>
<path d="M119.452 150.61C117.652 151.174 115.909 151.908 114.248 152.804C111.896 154.138 103.441 158.972 100.895 159.748C98.3489 160.524 96.92 160.401 95.6852 161.688C94.4504 162.976 90.5285 167.057 90.0287 168.827C89.5289 170.596 90.3109 170.408 91.0283 169.926C91.7456 169.444 93.7801 166.886 95.5794 166.71C97.3787 166.533 98.0843 166.598 98.1078 167.562C98.1313 168.527 96.9318 171.731 97.8844 171.455C98.8369 171.179 99.2603 169.691 99.8601 168.056C100.46 166.422 100.389 164.111 100.701 163.517C101.013 162.923 110.279 161.165 113.219 160.618C116.159 160.071 121.157 158.225 122.627 157.008C124.097 155.791 125.138 152.233 125.138 152.233" fill="#DE4C67"/>
<path d="M119.452 150.61C117.652 151.174 115.909 151.908 114.248 152.804C111.896 154.138 103.441 158.972 100.895 159.748C98.3489 160.524 96.92 160.401 95.6852 161.688C94.4504 162.976 90.5285 167.057 90.0287 168.827C89.5289 170.596 90.3109 170.408 91.0283 169.926C91.7456 169.444 93.7801 166.886 95.5794 166.71C97.3787 166.533 98.0843 166.598 98.1078 167.562C98.1313 168.527 96.9318 171.731 97.8844 171.455C98.8369 171.179 99.2603 169.691 99.8601 168.056C100.46 166.422 100.389 164.111 100.701 163.517C101.013 162.923 110.279 161.165 113.219 160.618C116.159 160.071 121.157 158.225 122.627 157.008C124.097 155.791 125.138 152.233 125.138 152.233" stroke="#263238" stroke-linecap="round" stroke-linejoin="round"/>
<path d="M93.1745 167.58C93.1745 167.58 89.5759 169.979 90.0287 171.626C90.4815 173.272 93.6272 173.878 95.4265 172.978C97.2258 172.078 98.5782 171.479 98.8781 169.226C99.178 166.974 98.4253 166.081 96.7789 166.081C95.1325 166.081 93.1745 167.58 93.1745 167.58Z" fill="#263238" stroke="#263238" stroke-linecap="round" stroke-linejoin="round"/>
<path d="M113.219 160.618C114.985 160.239 116.719 159.724 118.406 159.078C117.365 155.473 115.183 153.944 113.313 153.309C110.115 155.015 103.176 159.048 100.895 159.748C98.343 160.53 96.92 160.401 95.6852 161.688C94.4504 162.976 90.5285 167.057 90.0287 168.827C89.5289 170.597 90.3109 170.408 91.0283 169.926C91.7456 169.444 93.7801 166.886 95.5794 166.71C97.3787 166.533 98.0843 166.598 98.1078 167.562C98.1313 168.527 96.9318 171.731 97.8844 171.455C98.8369 171.179 99.2603 169.691 99.8601 168.056C100.46 166.422 100.389 164.111 100.707 163.517C101.024 162.923 110.279 161.189 113.219 160.618Z" fill="white" stroke="#263238" stroke-linecap="round" stroke-linejoin="round"/>
<path d="M96.2556 164.311C96.2556 164.311 93.1862 165.898 92.5336 166.663C91.8809 167.427 91.3576 170.291 92.2807 170.138C93.2039 169.985 94.0741 167.915 94.4857 167.486C95.1051 167.075 95.7831 166.76 96.4967 166.551" fill="white"/>
<path d="M96.2556 164.311C96.2556 164.311 93.1862 165.898 92.5336 166.663C91.8809 167.427 91.3576 170.291 92.2807 170.138C93.2039 169.985 94.0741 167.915 94.4857 167.486C95.1051 167.075 95.7831 166.76 96.4967 166.551" stroke="#263238" stroke-linecap="round" stroke-linejoin="round"/>
<path d="M145.612 177.4C158.352 177.4 168.68 175.467 168.68 173.084C168.68 170.7 158.352 168.768 145.612 168.768C132.873 168.768 122.545 170.7 122.545 173.084C122.545 175.467 132.873 177.4 145.612 177.4Z" fill="#DE4C67"/>
<path opacity="0.5" d="M145.612 177.4C158.352 177.4 168.68 175.467 168.68 173.084C168.68 170.7 158.352 168.768 145.612 168.768C132.873 168.768 122.545 170.7 122.545 173.084C122.545 175.467 132.873 177.4 145.612 177.4Z" fill="white"/>
<path d="M165.757 173.625H125.45C125.361 173.625 125.272 173.608 125.189 173.575C125.107 173.541 125.031 173.492 124.968 173.429C124.904 173.366 124.854 173.291 124.82 173.209C124.785 173.126 124.768 173.038 124.768 172.948C124.768 172.859 124.785 172.771 124.82 172.688C124.854 172.606 124.904 172.531 124.968 172.468C125.031 172.405 125.107 172.356 125.189 172.322C125.272 172.288 125.361 172.271 125.45 172.272H165.757C165.846 172.271 165.934 172.288 166.017 172.322C166.099 172.356 166.174 172.406 166.237 172.469C166.3 172.531 166.35 172.606 166.384 172.689C166.417 172.771 166.434 172.859 166.433 172.948C166.434 173.037 166.417 173.126 166.384 173.208C166.35 173.291 166.3 173.365 166.237 173.428C166.174 173.491 166.099 173.541 166.017 173.575C165.934 173.608 165.846 173.625 165.757 173.625Z" fill="white" stroke="#263238" stroke-linecap="round" stroke-linejoin="round"/>
<path d="M166.098 172.284H125.103C124.953 172.284 124.808 172.227 124.699 172.124C124.59 172.022 124.524 171.881 124.515 171.731L122.286 144.948C122.276 144.865 122.284 144.781 122.309 144.701C122.334 144.621 122.376 144.548 122.431 144.486C122.487 144.423 122.555 144.374 122.632 144.34C122.708 144.306 122.791 144.289 122.874 144.289H168.333C168.416 144.289 168.499 144.306 168.575 144.34C168.652 144.374 168.72 144.423 168.776 144.486C168.831 144.548 168.873 144.621 168.898 144.701C168.923 144.781 168.931 144.865 168.921 144.948L166.704 171.696C166.704 171.775 166.688 171.853 166.657 171.925C166.627 171.998 166.582 172.063 166.525 172.118C166.469 172.173 166.402 172.216 166.329 172.244C166.255 172.273 166.177 172.286 166.098 172.284Z" fill="white" stroke="#263238" stroke-linecap="round" stroke-linejoin="round"/>
<path d="M166.704 171.696L168.021 155.897C160.377 155.45 151.251 157.919 140.838 164.564C133.164 169.456 127.761 170.167 124.333 169.72L124.491 171.696C124.5 171.846 124.566 171.986 124.676 172.089C124.785 172.192 124.929 172.249 125.079 172.249H166.075C166.152 172.254 166.231 172.244 166.304 172.22C166.378 172.195 166.446 172.155 166.505 172.104C166.563 172.053 166.611 171.99 166.645 171.92C166.68 171.85 166.699 171.774 166.704 171.696Z" fill="#263238"/>
<path d="M149.47 158.725C149.47 160.324 147.735 161.618 145.601 161.618C143.466 161.618 141.726 160.324 141.726 158.725C141.726 157.125 143.472 155.82 145.601 155.82C147.729 155.82 149.47 157.131 149.47 158.725Z" fill="#263238"/>
<path d="M91.2282 172.519C89.7764 174.125 88.1692 175.582 86.4301 176.87C83.5783 178.97 85.0777 181.968 85.2541 184.82C85.4305 187.672 87.6532 197.862 92.7511 198.462C97.8491 199.062 96.5025 178.817 101.748 177.017C106.992 175.218 119.293 177.77 126.79 177.917C134.287 178.064 132.341 173.719 132.341 173.719" stroke="#263238" stroke-linecap="round" stroke-linejoin="round"/>
<path d="M225.328 107.428V122.716L248.442 136.063V120.681L225.328 107.428ZM244.767 129.36L228.997 120.252V113.913L244.767 122.951V129.36Z" fill="#263238" stroke="#263238" stroke-miterlimit="10"/>
<path d="M244.767 113.913V118.611L248.442 120.681V107.433L225.328 120.681V136.057L236.993 129.325V124.768L228.997 129.383V122.951L236.993 118.37V114.119L240.739 116.224L244.767 113.913Z" fill="white" stroke="#263238" stroke-miterlimit="10"/>
<path d="M244.767 122.951L242.415 121.634L237.064 124.727L240.915 127.061L244.767 124.832V122.951Z" fill="white" stroke="#263238" stroke-miterlimit="10"/>
<path d="M216.801 58.7216L189.639 77.0426L194.601 84.3986L221.763 66.0775L216.801 58.7216Z" fill="#263238"/>
<path d="M200.464 55.3868L193.856 59.8452L199.733 68.5567L206.342 64.0983L200.464 55.3868Z" fill="#263238"/>
<path d="M212.675 73.9619L206.075 78.4139L211.944 87.1153L218.545 82.6633L212.675 73.9619Z" fill="#263238"/>
<path d="M207.741 56.242L204.128 58.6785L207.301 63.3826L210.914 60.9461L207.741 56.242Z" fill="#263238"/>
<path d="M217.498 70.7061L213.886 73.1426L215.934 76.1795L219.547 73.7431L217.498 70.7061Z" fill="#263238"/>
<path d="M194.901 64.8512L190.275 67.9716L193.468 72.7049L198.094 69.5846L194.901 64.8512Z" fill="#263238"/>
<path d="M204.679 79.3446L200.052 82.465L202.081 85.4727L206.707 82.3523L204.679 79.3446Z" fill="#263238"/>
<path d="M200.367 84.9017L198.945 82.7933L196.822 84.2257L198.244 86.334L200.367 84.9017Z" fill="#263238"/>
<path d="M193.843 63.5318L192.696 61.8306L190.985 62.9847L192.132 64.686L193.843 63.5318Z" fill="#263238"/>
<path d="M145.271 30.6289L131.389 35.3447L133.358 54.096L145.271 60.6992V30.6289Z" fill="white" stroke="#263238" stroke-linecap="round" stroke-linejoin="round"/>
<path d="M145.318 30.6289L159.195 35.3447L157.231 54.096L145.318 60.6992V30.6289Z" fill="#263238" stroke="#263238" stroke-linecap="round" stroke-linejoin="round"/>
<path d="M151.116 53.4727H154.003L145.295 34.298L136.592 53.4727H139.479L141.473 49.0744H149.117L151.116 53.4727ZM142.708 46.3755L145.301 40.6601L147.894 46.3755H142.708Z" fill="white" stroke="#263238" stroke-linecap="round" stroke-linejoin="round"/>
<path d="M91.4222 62.428L87.6826 55.9482H74.4584L91.4222 85.3365L108.386 55.9482H95.1619L91.4222 62.428Z" fill="white" stroke="#263238" stroke-linecap="round" stroke-linejoin="round"/>
<path d="M91.4222 62.428L87.6825 55.9482H81.2733L91.4222 73.5353L101.577 55.9482H95.1619L91.4222 62.428Z" fill="#263238" stroke="#263238" stroke-linecap="round" stroke-linejoin="round"/>
<path d="M72.3652 111.855C71.7771 111.626 71.1421 111.42 70.4836 111.232C70.6306 110.562 70.7423 109.909 70.8246 109.28C71.2832 105.622 70.5306 103.071 68.7078 102.089C66.885 101.107 64.339 101.877 61.5342 104.258C61.1814 104.558 60.8286 104.882 60.4817 105.223C60.123 104.882 59.7702 104.564 59.4174 104.27C56.5832 101.918 54.0254 101.171 52.2203 102.177C50.4151 103.182 49.686 105.746 50.1799 109.368C50.2681 109.997 50.3857 110.644 50.5386 111.308C49.8859 111.502 49.2626 111.714 48.6746 111.949C45.2466 113.296 43.3826 115.183 43.3826 117.241C43.3826 119.299 45.2936 121.175 48.7276 122.492C49.3156 122.722 49.9506 122.927 50.615 123.115C50.468 123.786 50.3563 124.438 50.274 125.068C49.8154 128.725 50.568 131.277 52.3908 132.259C52.9161 132.542 53.5052 132.686 54.1019 132.676C55.6777 132.676 57.5534 131.8 59.5644 130.089C59.9172 129.789 60.2641 129.466 60.6169 129.125C60.9697 129.466 61.3284 129.783 61.6812 130.077C63.6922 131.747 65.562 132.606 67.1261 132.606C67.742 132.617 68.3501 132.467 68.8901 132.171C70.7011 131.165 71.4244 128.607 70.9246 124.956C70.8422 124.327 70.7187 123.68 70.5717 123.016C71.2244 122.821 71.8477 122.61 72.4357 122.38C75.8638 121.028 77.7277 119.141 77.7277 117.088C77.7277 115.036 75.805 113.172 72.3652 111.855ZM66.9908 103.376C67.3057 103.37 67.6172 103.442 67.8964 103.588C69.0253 104.176 69.4839 106.246 69.1311 109.068C69.0606 109.656 68.9606 110.244 68.8313 110.832C67.4523 110.533 66.056 110.318 64.6506 110.191C63.7476 108.875 62.7534 107.623 61.6753 106.446C61.9928 106.134 62.3162 105.858 62.6396 105.57C64.3037 104.141 65.856 103.376 66.9908 103.376ZM67.5788 119.252C67.9316 120.146 68.2256 121.016 68.4726 121.84C67.667 122.022 66.8144 122.181 65.9089 122.31C66.2382 121.757 66.5616 121.193 66.8732 120.616C67.1202 120.158 67.3554 119.705 67.5788 119.246V119.252ZM65.3738 119.805C64.8505 120.781 64.3095 121.693 63.7509 122.551C62.7396 122.633 61.6753 122.68 60.5699 122.686C59.4644 122.692 58.4119 122.686 57.3947 122.58C56.8067 121.716 56.2716 120.816 55.7424 119.858C55.2132 118.9 54.8133 118.094 54.4076 117.23C54.7996 116.363 55.2347 115.483 55.713 114.589C56.1912 113.696 56.7322 112.78 57.3359 111.844C58.3531 111.761 59.4174 111.714 60.5169 111.708H60.7286C61.7341 111.708 62.7278 111.744 63.6686 111.814C64.2566 112.678 64.7917 113.578 65.315 114.537C65.8384 115.495 66.2558 116.301 66.6557 117.165C66.2911 118.035 65.856 118.923 65.3738 119.799V119.805ZM60.5993 126.72C59.9368 125.999 59.2841 125.215 58.6412 124.368C59.2096 124.391 59.7859 124.403 60.3699 124.403H60.564C61.2167 124.403 61.8635 124.403 62.5044 124.35C61.9094 125.17 61.2736 125.959 60.5993 126.714V126.72ZM54.2547 120.681C54.5723 121.269 54.9016 121.81 55.2367 122.357C54.3312 122.239 53.4727 122.086 52.673 121.91C52.9082 121.087 53.1964 120.223 53.5315 119.323C53.7667 119.776 54.0019 120.228 54.2547 120.681ZM53.508 115.136C53.1611 114.254 52.8671 113.372 52.6142 112.549C53.4198 112.367 54.2724 112.208 55.1779 112.079C54.8486 112.624 54.5272 113.188 54.2136 113.772C53.9725 114.225 53.7373 114.66 53.508 115.136ZM60.4876 107.669C61.154 108.39 61.8066 109.174 62.4456 110.021C61.8047 110.021 61.1579 109.98 60.5052 109.985C59.8525 109.991 59.1998 109.985 58.5589 110.038C59.1939 109.192 59.8407 108.398 60.4934 107.669H60.4876ZM66.8321 113.702C66.5146 113.114 66.1853 112.573 65.8501 112.032C66.7399 112.149 67.5925 112.296 68.4079 112.473C68.1727 113.314 67.8846 114.178 67.5494 115.054C67.326 114.607 67.0849 114.154 66.8379 113.702H66.8321ZM51.8675 109.162C51.4794 106.34 51.9204 104.288 53.0435 103.67C53.331 103.517 53.6528 103.44 53.9784 103.447C55.1132 103.447 56.6597 104.194 58.3237 105.581C58.6471 105.852 58.9764 106.14 59.2998 106.452C58.2302 107.635 57.2476 108.895 56.3598 110.221C54.9558 110.364 53.5616 110.592 52.185 110.903C52.0556 110.303 51.9498 109.721 51.8734 109.162H51.8675ZM45.0819 117.265C45.0819 115.73 47.2811 114.084 50.9619 112.984C51.3926 114.434 51.9171 115.854 52.5319 117.235C51.9316 118.622 51.4229 120.046 51.009 121.498C47.3163 120.434 45.0878 118.805 45.0819 117.265ZM53.1905 130.789C51.8439 130.06 51.4559 127.326 52.2614 123.556C53.6385 123.856 55.0328 124.07 56.4362 124.197C57.3427 125.513 58.3387 126.764 59.4174 127.943C57.3594 129.93 55.4543 131.006 54.1254 131.006C53.8007 131.018 53.4784 130.945 53.1905 130.795V130.789ZM68.0492 130.712C66.9262 131.33 64.9505 130.612 62.7572 128.796C62.4319 128.525 62.1085 128.237 61.787 127.931C62.8535 126.743 63.8359 125.481 64.727 124.156C66.1311 124.013 67.5252 123.785 68.9018 123.474C69.7427 127.237 69.384 129.948 68.0492 130.718V130.712ZM70.119 121.393C69.6857 119.944 69.1613 118.524 68.549 117.141C69.145 115.754 69.6537 114.33 70.0719 112.878C70.6599 113.049 71.248 113.237 71.7595 113.466C74.4114 114.484 76.0049 115.854 76.0108 117.136C76.0166 118.653 73.8057 120.299 70.119 121.399V121.393Z" fill="#263238"/>
<path d="M63.7568 117.012C63.7568 117.647 63.5685 118.268 63.2158 118.796C62.863 119.324 62.3616 119.735 61.775 119.978C61.1883 120.221 60.5428 120.285 59.92 120.161C59.2973 120.037 58.7252 119.731 58.2762 119.282C57.8272 118.833 57.5214 118.261 57.3976 117.638C57.2737 117.016 57.3373 116.37 57.5803 115.783C57.8233 115.197 58.2347 114.695 58.7627 114.343C59.2907 113.99 59.9114 113.802 60.5464 113.802C60.9682 113.801 61.386 113.883 61.7759 114.044C62.1657 114.205 62.52 114.442 62.8182 114.74C63.1165 115.038 63.353 115.393 63.514 115.782C63.6751 116.172 63.7576 116.59 63.7568 117.012Z" fill="#263238"/>
<path d="M197.85 175.212C202.91 175.212 207.011 173.28 207.011 170.896C207.011 168.513 202.91 166.58 197.85 166.58C192.791 166.58 188.689 168.513 188.689 170.896C188.689 173.28 192.791 175.212 197.85 175.212Z" fill="#DE4C67"/>
<path opacity="0.5" d="M197.85 175.212C202.91 175.212 207.011 173.28 207.011 170.896C207.011 168.513 202.91 166.58 197.85 166.58C192.791 166.58 188.689 168.513 188.689 170.896C188.689 173.28 192.791 175.212 197.85 175.212Z" fill="white"/>
<path d="M190.971 162.053L192.047 170.644C192.047 171.996 194.84 173.09 198.279 173.09C201.719 173.09 204.518 171.996 204.518 170.644L205.594 162.053H190.971Z" fill="white" stroke="#263238" stroke-linecap="round" stroke-linejoin="round"/>
<path d="M198.279 164.916C202.316 164.916 205.588 163.634 205.588 162.053C205.588 160.471 202.316 159.189 198.279 159.189C194.243 159.189 190.971 160.471 190.971 162.053C190.971 163.634 194.243 164.916 198.279 164.916Z" fill="white" stroke="#263238" stroke-linecap="round" stroke-linejoin="round"/>
<path d="M198.279 164.246C201.722 164.246 204.512 163.264 204.512 162.053C204.512 160.841 201.722 159.859 198.279 159.859C194.837 159.859 192.047 160.841 192.047 162.053C192.047 163.264 194.837 164.246 198.279 164.246Z" fill="#263238" stroke="#263238" stroke-linecap="round" stroke-linejoin="round"/>
<path d="M197.703 162.964C197.703 162.964 193.858 161.2 193.093 159.707C192.329 158.213 192.923 155.003 192.923 155.003C194.453 155.556 195.755 156.606 196.621 157.984C197.38 159.532 197.751 161.241 197.703 162.964Z" fill="#DE4C67" stroke="#263238" stroke-linecap="round" stroke-linejoin="round"/>
<path d="M197.68 162.876C197.68 162.876 197.827 158.172 198.967 156.343C200.108 154.515 204.06 153.533 204.06 153.533C204.06 153.533 203.677 157.025 202.237 159.23C200.796 161.435 197.68 162.876 197.68 162.876Z" fill="#DE4C67" stroke="#263238" stroke-linecap="round" stroke-linejoin="round"/>
<path d="M198.209 163.182C198.209 163.182 196.004 160.595 196.004 157.631C196.004 154.668 198.356 152.392 198.356 152.392C199.362 153.821 200.037 155.456 200.332 157.178C200.643 159.683 198.209 163.182 198.209 163.182Z" fill="#DE4C67" stroke="#263238" stroke-linecap="round" stroke-linejoin="round"/>
</svg>
