<svg width="235" height="107" viewBox="0 0 235 107" fill="none" xmlns="http://www.w3.org/2000/svg">
<g clip-path="url(#clip0_50_3427)">
<path d="M7.76039 97.2345C7.69189 97.3499 7.60265 97.4518 7.49714 97.535C7.39343 97.6038 7.27061 97.6382 7.14614 97.6334C6.99955 97.6272 6.8566 97.5859 6.72933 97.5132L6.23025 97.2399C6.02564 97.134 5.81291 97.0445 5.59407 96.9722C5.3302 96.8874 5.05407 96.8468 4.77689 96.8519C4.35578 96.8203 3.93729 96.9405 3.59775 97.1907C3.46961 97.3036 3.36857 97.4437 3.30212 97.6008C3.23567 97.7578 3.2055 97.9277 3.21385 98.0979C3.20802 98.3223 3.29071 98.5401 3.44419 98.7045C3.62279 98.8779 3.83074 99.0185 4.05844 99.1198C4.34006 99.2441 4.62952 99.35 4.92497 99.4368C5.24855 99.5351 5.57761 99.6444 5.91764 99.7592C6.25822 99.8802 6.59149 100.021 6.9158 100.18C7.2368 100.337 7.52958 100.546 7.78233 100.797C8.0444 101.056 8.25146 101.365 8.3911 101.705C8.5592 102.113 8.63953 102.553 8.62692 102.994C8.63006 103.531 8.53144 104.063 8.33625 104.563C8.14589 105.041 7.85833 105.474 7.49166 105.836C7.10061 106.213 6.63569 106.505 6.12605 106.694C5.53444 106.91 4.90788 107.016 4.27781 107.005C3.89075 107.005 3.50475 106.965 3.1261 106.885C2.73679 106.81 2.35502 106.7 1.98535 106.557C1.62743 106.423 1.28236 106.256 0.954282 106.06C0.648467 105.879 0.366577 105.661 0.115173 105.41L0.943315 104.098C1.0088 103.997 1.09948 103.914 1.20656 103.858C1.31555 103.797 1.43823 103.765 1.56305 103.765C1.74272 103.77 1.91739 103.825 2.06761 103.923L2.61605 104.273C2.85013 104.411 3.09607 104.528 3.35096 104.623C3.66603 104.734 3.99854 104.787 4.33266 104.781C4.7565 104.807 5.17635 104.687 5.52277 104.442C5.67679 104.308 5.79605 104.138 5.87051 103.948C5.94496 103.758 5.97241 103.553 5.95055 103.35C5.96314 103.098 5.87876 102.852 5.71472 102.661C5.54567 102.472 5.33813 102.321 5.10595 102.218C4.82745 102.094 4.53955 101.992 4.24491 101.912C3.92133 101.825 3.59227 101.726 3.25224 101.617C2.91207 101.508 2.58031 101.375 2.25956 101.218C1.93887 101.061 1.64762 100.851 1.39852 100.595C1.13079 100.319 0.921849 99.9921 0.784268 99.6335C0.617956 99.1787 0.539791 98.6965 0.553923 98.2127C0.552761 97.7559 0.64611 97.3039 0.828142 96.8847C1.01281 96.4467 1.28743 96.0521 1.63435 95.7262C2.02047 95.3835 2.46922 95.1182 2.95608 94.9447C3.52241 94.7347 4.12335 94.6327 4.72753 94.6442C5.095 94.6419 5.46198 94.6711 5.82441 94.7316C6.1662 94.7861 6.50219 94.8721 6.82805 94.9884C7.13476 95.0989 7.43191 95.2342 7.71652 95.3928C7.98175 95.5488 8.22989 95.732 8.45691 95.9393L7.76039 97.2345Z" fill="#3A91E7"/>
<path d="M12.444 98.2728V103.738C12.4199 104.091 12.523 104.442 12.7347 104.727C12.8415 104.845 12.9741 104.938 13.1224 104.998C13.2707 105.057 13.4308 105.082 13.5903 105.071C13.8654 105.075 14.1376 105.015 14.3855 104.896C14.6489 104.769 14.8927 104.606 15.1094 104.41V98.2728H17.6926V106.88H16.1186C15.9796 106.892 15.8407 106.855 15.7257 106.776C15.6107 106.698 15.5267 106.582 15.4879 106.448L15.3288 105.951C15.1657 106.109 14.9916 106.255 14.8078 106.388C14.637 106.518 14.4532 106.629 14.2594 106.721C14.0497 106.814 13.831 106.886 13.6067 106.934C13.3548 106.991 13.0972 107.019 12.8389 107.016C12.4092 107.025 11.9827 106.941 11.5885 106.77C11.2214 106.615 10.895 106.377 10.6342 106.076C10.3831 105.771 10.1966 105.418 10.0858 105.038C9.95219 104.614 9.88739 104.171 9.89381 103.727V98.2728H12.444Z" fill="#3A91E7"/>
<path d="M25.7546 106.869C25.6121 106.874 25.4711 106.838 25.3488 106.765C25.2387 106.684 25.1594 106.569 25.1239 106.437L24.921 105.781C24.7518 105.963 24.5684 106.131 24.3726 106.284C24.1835 106.432 23.9795 106.561 23.7638 106.667C23.5384 106.777 23.301 106.861 23.0563 106.918C22.786 106.976 22.5102 107.005 22.2336 107.005C21.7986 107.007 21.3696 106.904 20.9832 106.705C20.5894 106.498 20.2495 106.202 19.9905 105.841C19.6945 105.422 19.4737 104.954 19.3379 104.459C19.1716 103.852 19.0923 103.225 19.1021 102.595C19.097 101.99 19.1858 101.387 19.3653 100.808C19.5277 100.285 19.7862 99.7955 20.1276 99.3657C20.4432 98.9695 20.8419 98.6469 21.2958 98.4203C21.7654 98.1924 22.2817 98.0764 22.804 98.0815C23.1901 98.0708 23.5743 98.1377 23.9338 98.2782C24.2374 98.4049 24.5203 98.5762 24.7729 98.7865V94.4147H27.356V106.842L25.7546 106.869ZM23.1386 105.027C23.3102 105.03 23.4815 105.012 23.6486 104.973C23.7956 104.941 23.9377 104.889 24.0709 104.82C24.2006 104.752 24.322 104.669 24.4329 104.574C24.553 104.464 24.6665 104.347 24.7729 104.224V100.573C24.6005 100.373 24.3823 100.218 24.1367 100.12C23.9093 100.032 23.6675 99.9878 23.4238 99.9887C23.1965 99.9866 22.9716 100.035 22.7656 100.131C22.5446 100.229 22.3549 100.386 22.2172 100.584C22.0521 100.83 21.9349 101.104 21.8717 101.393C21.779 101.787 21.7366 102.191 21.7455 102.595C21.7393 102.98 21.7724 103.365 21.8443 103.743C21.8936 104.007 21.9882 104.26 22.124 104.492C22.226 104.665 22.3741 104.807 22.5517 104.902C22.7334 104.992 22.9354 105.036 23.1386 105.027Z" fill="#3A91E7"/>
<path d="M35.3139 106.869C35.1259 106.879 34.9382 106.845 34.7655 106.77C34.6142 106.674 34.5031 106.527 34.4529 106.355L34.2664 105.885C34.0525 106.066 33.8441 106.224 33.6412 106.366C33.4465 106.502 33.2389 106.62 33.0214 106.716C32.804 106.815 32.5758 106.888 32.3414 106.934C32.0753 106.982 31.8055 107.006 31.5352 107.005C31.1639 107.01 30.794 106.959 30.4383 106.852C30.1359 106.76 29.8571 106.603 29.6211 106.393C29.3816 106.193 29.1936 105.938 29.0727 105.65C28.9418 105.324 28.8783 104.974 28.8862 104.623C28.8908 104.296 28.9715 103.974 29.122 103.683C29.3079 103.324 29.5861 103.02 29.9282 102.803C30.4051 102.498 30.9296 102.275 31.4803 102.142C32.2838 101.944 33.11 101.854 33.9373 101.874V101.502C33.9707 101.112 33.8595 100.723 33.6247 100.41C33.5094 100.293 33.3705 100.203 33.2172 100.144C33.064 100.086 32.9 100.061 32.7362 100.071C32.4821 100.064 32.2285 100.097 31.9849 100.169C31.7961 100.228 31.6127 100.303 31.4364 100.393C31.2829 100.475 31.1348 100.552 30.9922 100.617C30.8294 100.686 30.6536 100.72 30.4767 100.716C30.3158 100.72 30.1572 100.676 30.0215 100.59C29.8983 100.508 29.7967 100.397 29.7253 100.267L29.2591 99.4641C29.7665 99.0127 30.3569 98.6638 30.9977 98.4367C31.6554 98.2099 32.3474 98.0971 33.0434 98.1034C33.5251 98.0951 34.0039 98.1805 34.4529 98.3548C34.8547 98.5088 35.2181 98.7479 35.5183 99.0554C35.8184 99.363 36.0481 99.7317 36.1914 100.136C36.3486 100.573 36.4266 101.033 36.4217 101.497V106.874L35.3139 106.869ZM32.3468 105.3C32.6471 105.309 32.9454 105.25 33.2189 105.126C33.5042 104.991 33.7625 104.806 33.9812 104.579V103.399C33.5529 103.393 33.125 103.428 32.7033 103.503C32.4294 103.548 32.1634 103.633 31.9136 103.754C31.7484 103.828 31.6077 103.948 31.5077 104.098C31.4357 104.225 31.398 104.368 31.3981 104.514C31.3849 104.629 31.4 104.746 31.442 104.855C31.484 104.963 31.5517 105.06 31.6394 105.137C31.8531 105.266 32.1032 105.324 32.3523 105.3H32.3468Z" fill="#3A91E7"/>
<path d="M38.3358 106.869V98.2728H39.9317C40.0749 98.2684 40.2161 98.3065 40.3376 98.3821C40.4521 98.4571 40.5343 98.5721 40.5679 98.7045L40.705 99.169C40.8487 99.0238 41.0007 98.8869 41.1602 98.7592C41.3154 98.6354 41.4826 98.5274 41.6593 98.4367C41.8464 98.3428 42.0431 98.2695 42.2461 98.2181C42.4709 98.1663 42.701 98.1406 42.9317 98.1416C43.3973 98.1218 43.8552 98.2648 44.226 98.546C44.5828 98.8309 44.8525 99.2094 45.0048 99.639C45.1485 99.3843 45.3339 99.1553 45.5532 98.9613C45.7538 98.7756 45.9812 98.6209 46.2278 98.5023C46.472 98.385 46.7299 98.2988 46.9956 98.2455C47.2591 98.1914 47.5273 98.164 47.7963 98.1635C48.2448 98.1549 48.6911 98.2291 49.1126 98.3821C49.479 98.5193 49.8091 98.7379 50.0778 99.0214C50.3432 99.31 50.5449 99.6506 50.6701 100.022C50.8079 100.467 50.8745 100.932 50.8676 101.399V106.863H48.2844V101.399C48.2844 100.508 47.9005 100.065 47.1382 100.065C46.977 100.06 46.8165 100.089 46.6665 100.148C46.5166 100.207 46.3804 100.296 46.2662 100.41C46.1446 100.543 46.0513 100.699 45.9919 100.869C45.9325 101.039 45.9083 101.219 45.9207 101.399V106.863H43.3375V101.399C43.3747 101.03 43.2709 100.661 43.0469 100.366C42.9316 100.26 42.7958 100.178 42.6476 100.126C42.4995 100.075 42.3423 100.054 42.1858 100.065C41.9567 100.063 41.7306 100.118 41.5277 100.224C41.3107 100.334 41.1112 100.476 40.9354 100.644V106.869H38.3358Z" fill="#3A91E7"/>
<path d="M56.3794 98.1307C56.9142 98.1239 57.4458 98.2147 57.9479 98.3985C58.4074 98.5627 58.825 98.8258 59.1709 99.169C59.5241 99.5205 59.7972 99.9435 59.9717 100.41C60.1695 100.933 60.268 101.489 60.2623 102.049C60.2637 102.208 60.2546 102.367 60.2349 102.524C60.2239 102.626 60.1922 102.725 60.1417 102.814C60.1 102.881 60.0388 102.935 59.9662 102.967C59.8722 102.996 59.7739 103.009 59.6755 103.005H54.6957C54.7174 103.589 54.9513 104.144 55.3538 104.568C55.7316 104.903 56.2255 105.077 56.7304 105.055C56.992 105.06 57.2529 105.025 57.5037 104.951C57.6924 104.882 57.8757 104.8 58.0521 104.705C58.2221 104.617 58.3812 104.541 58.5183 104.464C58.6579 104.395 58.812 104.359 58.968 104.361C59.0582 104.357 59.148 104.375 59.2293 104.414C59.3106 104.453 59.381 104.512 59.4342 104.585L60.1801 105.503C59.9326 105.793 59.6423 106.043 59.319 106.246C59.0224 106.434 58.7038 106.584 58.3702 106.694C58.0537 106.803 57.7264 106.878 57.394 106.918C57.0869 106.961 56.7772 106.983 56.4671 106.984C55.8855 106.988 55.3078 106.888 54.7615 106.689C54.243 106.496 53.7705 106.198 53.3739 105.814C52.9594 105.404 52.6377 104.91 52.4306 104.366C52.1887 103.725 52.0714 103.045 52.0851 102.36C52.0821 101.8 52.1824 101.245 52.3813 100.721C52.5732 100.214 52.8667 99.7506 53.2438 99.3598C53.6209 98.969 54.0738 98.6587 54.575 98.4477C55.1482 98.2196 55.7625 98.1117 56.3794 98.1307ZM56.4287 99.9067C56.2173 99.8945 56.0055 99.9255 55.8065 99.9978C55.6074 100.07 55.4254 100.182 55.2715 100.328C54.9677 100.664 54.7761 101.086 54.7231 101.535H57.9479C57.9474 101.332 57.9216 101.131 57.8711 100.934C57.8201 100.746 57.7325 100.57 57.6134 100.415C57.4849 100.26 57.3239 100.135 57.1417 100.049C56.9172 99.951 56.6736 99.9043 56.4287 99.9122V99.9067Z" fill="#3A91E7"/>
<path d="M61.7431 106.869V98.2728H63.2842C63.393 98.2705 63.5017 98.2815 63.6078 98.3055C63.6859 98.3241 63.7589 98.3596 63.8217 98.4094C63.8822 98.459 63.9293 98.5229 63.9588 98.5952C63.9904 98.6882 64.016 98.7831 64.0356 98.8793L64.1782 99.6827C64.4583 99.2361 64.819 98.8452 65.2421 98.5296C65.6179 98.2561 66.0711 98.1088 66.5364 98.1088C66.8752 98.0924 67.2096 98.1906 67.4852 98.3875L67.1507 100.284C67.1394 100.379 67.0924 100.467 67.0191 100.53C66.9387 100.58 66.845 100.605 66.7503 100.601C66.6398 100.597 66.5297 100.584 66.4213 100.562C66.2621 100.534 66.1004 100.521 65.9386 100.524C65.5941 100.532 65.2593 100.64 64.9749 100.834C64.6906 101.028 64.469 101.3 64.3372 101.617V106.896L61.7431 106.869Z" fill="#3A91E7"/>
<path d="M71.5876 95.9065C71.59 96.1043 71.5488 96.3002 71.4669 96.4803C71.2944 96.8434 70.9909 97.1283 70.6168 97.2782C70.4245 97.3599 70.2172 97.4008 70.0081 97.3984C69.8042 97.4013 69.6022 97.3603 69.4157 97.2782C69.2347 97.2013 69.0692 97.092 68.9276 96.9558C68.7866 96.8201 68.673 96.6587 68.5931 96.4803C68.5137 96.2994 68.4727 96.104 68.4724 95.9065C68.4721 95.7037 68.5132 95.5029 68.5931 95.3163C68.673 95.1363 68.7865 94.9731 68.9276 94.8354C69.0692 94.6992 69.2347 94.5899 69.4157 94.513C69.6022 94.4309 69.8042 94.3899 70.0081 94.3928C70.2172 94.3904 70.4245 94.4313 70.6168 94.513C70.8043 94.587 70.9757 94.6965 71.1214 94.8354C71.2658 94.9727 71.383 95.1358 71.4669 95.3163C71.5493 95.5021 71.5905 95.7034 71.5876 95.9065ZM71.2914 98.2728V106.88H68.7083V98.2728H71.2914Z" fill="#3A91E7"/>
<path d="M79.6057 100.306C79.5378 100.387 79.4626 100.462 79.3809 100.53C79.2882 100.59 79.1786 100.618 79.0683 100.612C78.9465 100.615 78.8265 100.582 78.7227 100.519L78.3772 100.317C78.2339 100.235 78.0834 100.168 77.9275 100.114C77.7204 100.048 77.5034 100.016 77.2858 100.021C77.0035 100.016 76.7237 100.076 76.4687 100.196C76.2473 100.314 76.0588 100.485 75.9202 100.694C75.7581 100.934 75.6444 101.203 75.5857 101.486C75.5099 101.834 75.4732 102.19 75.476 102.546C75.4338 103.214 75.6005 103.878 75.9531 104.448C76.1005 104.659 76.2986 104.831 76.5295 104.946C76.7604 105.062 77.0167 105.118 77.2749 105.109C77.5175 105.121 77.7599 105.083 77.9878 105C78.1456 104.934 78.2948 104.85 78.4321 104.749C78.5582 104.661 78.6679 104.574 78.7721 104.497C78.8857 104.417 79.0225 104.377 79.1615 104.382C79.2517 104.379 79.3414 104.397 79.4228 104.436C79.5041 104.475 79.5745 104.534 79.6277 104.606L80.3735 105.524C80.1312 105.811 79.8486 106.061 79.5344 106.268C79.2525 106.454 78.9486 106.604 78.6295 106.716C78.3296 106.824 78.0189 106.899 77.7026 106.94C77.4011 106.983 77.0969 107.005 76.7922 107.005C76.2728 107.005 75.7585 106.903 75.2786 106.705C74.8006 106.508 74.3705 106.212 74.0172 105.836C73.6352 105.434 73.3403 104.958 73.1506 104.437C72.9263 103.832 72.8166 103.191 72.827 102.546C72.8222 101.955 72.9168 101.368 73.1067 100.808C73.2785 100.282 73.5639 99.8004 73.943 99.3962C74.322 98.9921 74.7854 98.6758 75.3005 98.4695C75.8932 98.234 76.5272 98.1188 77.1652 98.1307C77.7749 98.1193 78.3808 98.2289 78.9476 98.4531C79.4657 98.6754 79.9352 98.9966 80.3297 99.3985L79.6057 100.306Z" fill="#3A91E7"/>
<path d="M87.4155 106.869C87.2275 106.878 87.0399 106.844 86.867 106.77C86.7187 106.671 86.6085 106.525 86.5544 106.355L86.3734 105.885C86.1595 106.066 85.9511 106.224 85.7482 106.366C85.5535 106.502 85.346 106.62 85.1285 106.716C84.9092 106.815 84.6791 106.888 84.4429 106.934C84.1787 106.982 83.9107 107.006 83.6422 107.005C83.2709 107.01 82.901 106.959 82.5453 106.852C82.2414 106.76 81.9609 106.603 81.7227 106.393C81.485 106.191 81.2973 105.937 81.1742 105.65C81.0483 105.322 80.9868 104.974 80.9933 104.623C80.9986 104.296 81.0773 103.975 81.2236 103.683C81.4133 103.325 81.693 103.022 82.0353 102.803C82.5106 102.499 83.0332 102.276 83.5819 102.142C84.3854 101.945 85.2116 101.855 86.0389 101.874V101.502C86.0723 101.112 85.9611 100.723 85.7263 100.409C85.612 100.293 85.474 100.203 85.3217 100.145C85.1694 100.086 85.0062 100.061 84.8433 100.071C84.5892 100.063 84.3355 100.096 84.0919 100.169C83.9032 100.228 83.7197 100.303 83.5435 100.393C83.3899 100.475 83.2419 100.552 83.0993 100.617C82.9363 100.686 82.7606 100.719 82.5837 100.716C82.4228 100.72 82.2643 100.676 82.1285 100.59C82.0053 100.508 81.9038 100.397 81.8324 100.267L81.3662 99.4641C81.8735 99.0127 82.464 98.6638 83.1047 98.4367C83.7605 98.2094 84.4507 98.0967 85.1449 98.1034C85.6285 98.0952 86.109 98.1806 86.5599 98.3547C86.9604 98.511 87.3227 98.7508 87.6226 99.0581C87.9224 99.3654 88.1529 99.733 88.2984 100.136C88.4556 100.573 88.5336 101.033 88.5288 101.497V106.874L87.4155 106.869ZM84.4539 105.3C84.7541 105.309 85.0523 105.249 85.3259 105.126C85.6102 104.992 85.8669 104.807 86.0828 104.579V103.399C85.6563 103.393 85.2302 103.428 84.8104 103.503C84.5362 103.547 84.2702 103.632 84.0206 103.754C83.8544 103.827 83.7133 103.946 83.6148 104.098C83.5403 104.224 83.5023 104.368 83.5051 104.514C83.492 104.629 83.507 104.746 83.5491 104.855C83.5911 104.963 83.6588 105.06 83.7464 105.137C83.9633 105.269 84.2175 105.326 84.4704 105.3H84.4539Z" fill="#3A91E7"/>
<path d="M90.4483 106.869V98.2728H92.0497C92.1928 98.2691 92.3339 98.307 92.4556 98.3821C92.5656 98.4605 92.645 98.5744 92.6804 98.7045L92.834 99.2018C92.9983 99.0491 93.1704 98.905 93.3495 98.7701C93.5203 98.6404 93.7041 98.5287 93.898 98.4367C94.1094 98.3419 94.3299 98.2687 94.5561 98.2181C94.8087 98.1664 95.066 98.1408 95.3239 98.1416C95.7554 98.1326 96.1838 98.2165 96.5798 98.3875C96.9328 98.5439 97.2472 98.7752 97.5012 99.0652C97.7533 99.3703 97.94 99.7237 98.0496 100.103C98.1825 100.526 98.2473 100.967 98.2416 101.41V106.874H95.6969V101.41C95.7201 101.058 95.6171 100.709 95.4062 100.426C95.3002 100.306 95.1679 100.212 95.0195 100.151C94.8711 100.091 94.7106 100.065 94.5506 100.076C94.2733 100.074 93.9994 100.136 93.7499 100.256C93.4888 100.387 93.2471 100.552 93.0314 100.748V106.88L90.4483 106.869Z" fill="#3A91E7"/>
<path d="M106.062 106.869C105.874 106.879 105.687 106.845 105.514 106.77C105.363 106.674 105.252 106.527 105.201 106.355L105.02 105.885C104.801 106.066 104.593 106.224 104.395 106.366C104.198 106.501 103.989 106.618 103.77 106.716C103.552 106.815 103.324 106.888 103.09 106.934C102.824 106.982 102.554 107.006 102.284 107.005C101.912 107.01 101.542 106.959 101.187 106.852C100.885 106.758 100.607 106.602 100.37 106.393C100.13 106.193 99.942 105.938 99.8211 105.65C99.6902 105.324 99.6268 104.974 99.6346 104.623C99.6417 104.296 99.7223 103.975 99.8705 103.683C100.056 103.324 100.335 103.02 100.677 102.803C101.153 102.498 101.678 102.275 102.229 102.142C103.032 101.944 103.858 101.854 104.686 101.874V101.502C104.719 101.112 104.608 100.723 104.373 100.41C104.258 100.293 104.119 100.203 103.966 100.144C103.812 100.086 103.648 100.061 103.485 100.071C103.231 100.064 102.977 100.097 102.733 100.169C102.554 100.23 102.38 100.305 102.212 100.393C102.064 100.475 101.916 100.552 101.768 100.617C101.605 100.687 101.43 100.72 101.253 100.716C101.092 100.719 100.933 100.675 100.797 100.59C100.674 100.508 100.573 100.397 100.501 100.267L100.035 99.4641C100.542 99.0127 101.133 98.6638 101.774 98.4367C102.431 98.2099 103.123 98.0971 103.819 98.1034C104.301 98.0951 104.78 98.1805 105.229 98.3548C105.631 98.5113 105.996 98.7516 106.298 99.0597C106.596 99.3729 106.824 99.7454 106.967 100.153C107.126 100.589 107.206 101.049 107.203 101.513V106.891L106.062 106.869ZM103.095 105.3C103.397 105.309 103.697 105.249 103.973 105.126C104.255 104.989 104.512 104.804 104.73 104.579V103.399C104.301 103.393 103.873 103.428 103.452 103.503C103.178 103.549 102.912 103.634 102.662 103.754C102.497 103.828 102.356 103.948 102.256 104.098C102.184 104.225 102.146 104.368 102.146 104.514C102.135 104.629 102.15 104.746 102.192 104.854C102.234 104.962 102.301 105.059 102.388 105.137C102.605 105.269 102.859 105.326 103.112 105.3H103.095Z" fill="#3A91E7"/>
<path d="M118.375 106.869C118.232 106.874 118.091 106.838 117.969 106.765C117.859 106.683 117.778 106.568 117.739 106.437L117.541 105.781C117.372 105.963 117.189 106.131 116.993 106.284C116.804 106.432 116.6 106.561 116.384 106.667C116.159 106.777 115.921 106.861 115.676 106.918C115.406 106.976 115.13 107.005 114.854 107.005C114.419 107.007 113.99 106.904 113.603 106.705C113.21 106.498 112.87 106.202 112.611 105.841C112.315 105.422 112.094 104.954 111.958 104.459C111.792 103.852 111.712 103.225 111.722 102.595C111.717 101.99 111.806 101.387 111.985 100.808C112.148 100.291 112.405 99.8074 112.742 99.3821C113.058 98.9859 113.457 98.6632 113.91 98.4367C114.38 98.2087 114.896 98.0928 115.419 98.0979C115.805 98.0872 116.189 98.1541 116.548 98.2946C116.852 98.4213 117.135 98.5926 117.388 98.8029V94.431H119.971V106.858L118.375 106.869ZM115.759 105.027C115.93 105.03 116.102 105.012 116.269 104.973C116.416 104.941 116.558 104.889 116.691 104.82C116.821 104.752 116.942 104.669 117.053 104.574C117.173 104.464 117.287 104.347 117.393 104.224V100.573C117.218 100.374 116.998 100.218 116.751 100.12C116.526 100.032 116.286 99.9879 116.044 99.9887C115.817 99.9866 115.592 100.035 115.386 100.131C115.174 100.232 114.993 100.389 114.865 100.584C114.7 100.83 114.582 101.104 114.519 101.393C114.427 101.787 114.384 102.191 114.393 102.595C114.387 102.98 114.42 103.365 114.492 103.743C114.541 104.007 114.636 104.26 114.772 104.492C114.874 104.665 115.022 104.807 115.199 104.902C115.373 104.988 115.565 105.031 115.759 105.027Z" fill="#3A91E7"/>
<path d="M125.674 98.1307C126.209 98.1239 126.741 98.2147 127.243 98.3985C127.702 98.5641 128.119 98.827 128.466 99.169C128.817 99.5219 129.09 99.9446 129.267 100.409C129.463 100.934 129.559 101.49 129.552 102.049C129.562 102.207 129.562 102.366 129.552 102.524C129.541 102.626 129.509 102.725 129.459 102.814C129.417 102.881 129.356 102.935 129.283 102.967C129.189 102.996 129.091 103.009 128.993 103.005H124.013C124.034 103.589 124.268 104.144 124.671 104.568C125.046 104.903 125.539 105.077 126.042 105.055C126.305 105.061 126.568 105.026 126.821 104.951C127.019 104.884 127.211 104.802 127.397 104.705L127.863 104.464C128.002 104.395 128.156 104.359 128.312 104.361C128.403 104.357 128.492 104.375 128.574 104.414C128.655 104.453 128.725 104.512 128.779 104.585L129.524 105.503C129.277 105.793 128.987 106.043 128.663 106.246C128.367 106.434 128.048 106.584 127.715 106.694C127.398 106.802 127.071 106.877 126.738 106.918C126.43 106.972 126.119 107.005 125.806 107.016C125.224 107.021 124.647 106.921 124.1 106.721C123.581 106.53 123.109 106.232 122.713 105.847C122.298 105.437 121.977 104.943 121.77 104.399C121.528 103.758 121.41 103.078 121.424 102.393C121.421 101.833 121.521 101.278 121.72 100.754C121.909 100.251 122.198 99.7922 122.57 99.404C122.95 99.0098 123.405 98.6957 123.909 98.4804C124.467 98.2463 125.068 98.1273 125.674 98.1307ZM125.724 99.9067C125.512 99.8945 125.301 99.9255 125.102 99.9978C124.903 100.07 124.72 100.182 124.567 100.328C124.261 100.662 124.069 101.085 124.018 101.535H127.243C127.242 101.332 127.217 101.131 127.166 100.934C127.113 100.747 127.026 100.571 126.908 100.415C126.78 100.26 126.619 100.135 126.437 100.049C126.212 99.9509 125.969 99.9043 125.724 99.9122V99.9067Z" fill="#3A91E7"/>
<path d="M141.02 97.2345C140.948 97.3472 140.859 97.4485 140.757 97.535C140.651 97.6039 140.526 97.6382 140.4 97.6334C140.255 97.6263 140.114 97.5851 139.989 97.5132L139.49 97.2399C139.285 97.135 139.072 97.0455 138.853 96.9722C138.589 96.8878 138.313 96.8472 138.036 96.8519C137.615 96.8203 137.197 96.9405 136.857 97.1907C136.728 97.3033 136.626 97.4433 136.559 97.6003C136.492 97.7573 136.46 97.9273 136.468 98.0979C136.464 98.2096 136.483 98.3208 136.524 98.425C136.565 98.5292 136.626 98.6242 136.704 98.7045C136.88 98.8779 137.086 99.0185 137.312 99.1198C137.594 99.2441 137.883 99.35 138.179 99.4368C138.508 99.5351 138.837 99.6444 139.177 99.7592C139.516 99.8802 139.847 100.021 140.17 100.18C140.491 100.336 140.784 100.544 141.036 100.797C141.3 101.056 141.508 101.365 141.65 101.705C141.815 102.114 141.896 102.553 141.886 102.994C141.89 103.531 141.79 104.064 141.59 104.563C141.404 105.043 141.116 105.477 140.746 105.836C140.356 106.215 139.891 106.508 139.38 106.694C138.79 106.91 138.165 107.015 137.537 107.005C137.148 107.005 136.761 106.965 136.38 106.885C135.993 106.809 135.613 106.7 135.245 106.557C134.886 106.424 134.541 106.257 134.214 106.06C133.907 105.878 133.624 105.659 133.369 105.41L134.203 104.098C134.266 103.997 134.355 103.914 134.46 103.858C134.569 103.797 134.692 103.765 134.817 103.765C134.997 103.769 135.172 103.824 135.321 103.923L135.87 104.273C136.106 104.411 136.354 104.528 136.61 104.623C136.925 104.735 137.258 104.789 137.592 104.781C138.016 104.806 138.435 104.686 138.782 104.442C138.935 104.307 139.053 104.137 139.127 103.947C139.2 103.757 139.227 103.552 139.204 103.35C139.216 103.099 139.134 102.854 138.974 102.661C138.803 102.472 138.594 102.321 138.36 102.218C138.082 102.093 137.794 101.991 137.499 101.912C137.175 101.825 136.846 101.727 136.506 101.617C136.167 101.509 135.837 101.376 135.519 101.218C135.197 101.061 134.903 100.851 134.652 100.595C134.386 100.319 134.179 99.9918 134.044 99.6335C133.873 99.1796 133.793 98.697 133.808 98.2127C133.809 97.7562 133.902 97.3047 134.082 96.8847C134.271 96.4475 134.547 96.0533 134.894 95.7262C135.272 95.375 135.715 95.1003 136.199 94.9174C136.767 94.7069 137.37 94.605 137.976 94.6169C138.343 94.6146 138.71 94.6438 139.073 94.7043C139.414 94.7601 139.75 94.8461 140.076 94.9611C140.383 95.0716 140.68 95.2068 140.965 95.3655C141.229 95.5201 141.476 95.7034 141.7 95.912L141.02 97.2345Z" fill="#3A91E7"/>
<path d="M147.129 98.1307C147.741 98.1234 148.349 98.2271 148.923 98.4367C149.442 98.6298 149.915 98.9296 150.31 99.3165C150.704 99.7134 151.011 100.188 151.21 100.71C151.431 101.297 151.539 101.92 151.528 102.546C151.538 103.18 151.43 103.81 151.21 104.404C151.011 104.928 150.705 105.404 150.31 105.803C149.917 106.195 149.444 106.499 148.923 106.694C147.762 107.109 146.492 107.109 145.33 106.694C144.805 106.498 144.327 106.194 143.926 105.803C143.529 105.406 143.22 104.929 143.022 104.404C142.799 103.81 142.689 103.18 142.698 102.546C142.689 101.919 142.799 101.296 143.022 100.71C143.22 100.187 143.529 99.7117 143.926 99.3165C144.329 98.9305 144.807 98.631 145.33 98.4367C145.907 98.2272 146.516 98.1235 147.129 98.1307ZM147.129 105.093C147.384 105.112 147.64 105.065 147.87 104.955C148.101 104.846 148.299 104.679 148.446 104.47C148.723 103.87 148.866 103.217 148.866 102.557C148.866 101.897 148.723 101.244 148.446 100.644C148.299 100.436 148.101 100.268 147.87 100.159C147.64 100.05 147.384 100.002 147.129 100.022C146.871 100.001 146.612 100.048 146.378 100.157C146.143 100.266 145.941 100.434 145.791 100.644C145.507 101.242 145.36 101.896 145.36 102.557C145.36 103.219 145.507 103.872 145.791 104.47C145.941 104.68 146.143 104.848 146.378 104.957C146.612 105.066 146.871 105.113 147.129 105.093Z" fill="#3A91E7"/>
<path d="M153.332 106.869V100.032L152.784 99.9122C152.614 99.8793 152.453 99.8104 152.312 99.71C152.255 99.6572 152.21 99.5928 152.179 99.5212C152.149 99.4496 152.135 99.3724 152.137 99.2947V98.2728H153.354V97.7864C153.346 97.3292 153.426 96.8748 153.59 96.4476C153.74 96.0619 153.972 95.7132 154.27 95.4256C154.588 95.1366 154.961 94.9137 155.367 94.7699C155.834 94.6103 156.326 94.5326 156.82 94.5404C157.018 94.5384 157.216 94.5512 157.413 94.5786C157.599 94.6026 157.782 94.6429 157.961 94.6988L157.912 95.9503C157.911 96.0286 157.886 96.1048 157.84 96.1688C157.799 96.2256 157.747 96.2738 157.687 96.3109C157.624 96.3476 157.555 96.3735 157.484 96.3874C157.41 96.4046 157.335 96.4137 157.259 96.4148C157.056 96.4122 156.853 96.4342 156.656 96.4803C156.488 96.5192 156.333 96.6001 156.206 96.7153C156.083 96.842 155.991 96.9954 155.937 97.1634C155.87 97.3922 155.839 97.63 155.844 97.8684V98.2728H157.879V100.032H155.926V106.863L153.332 106.869Z" fill="#3A91E7"/>
<path d="M162.003 107.016C161.629 107.025 161.257 106.964 160.906 106.836C160.609 106.726 160.34 106.552 160.116 106.328C159.897 106.103 159.73 105.832 159.628 105.535C159.514 105.201 159.459 104.85 159.464 104.497V100.049H158.729C158.604 100.051 158.482 100.006 158.389 99.9231C158.339 99.8745 158.3 99.8156 158.275 99.7504C158.251 99.6852 158.241 99.6155 158.246 99.5461V98.5405L159.617 98.2728L160.127 96.1743C160.154 96.0523 160.224 95.9442 160.325 95.8707C160.426 95.7971 160.551 95.7632 160.676 95.7754H162.025V98.2728H164.125V100.032H162.058V104.311C162.051 104.487 162.103 104.66 162.206 104.803C162.255 104.868 162.319 104.92 162.392 104.954C162.466 104.989 162.547 105.004 162.628 105C162.708 105.002 162.788 104.991 162.864 104.967C162.922 104.954 162.978 104.932 163.029 104.902L163.166 104.836C163.212 104.824 163.261 104.824 163.308 104.836C163.375 104.831 163.441 104.851 163.495 104.891C163.555 104.937 163.605 104.995 163.643 105.06L164.427 106.279C164.088 106.526 163.707 106.711 163.303 106.825C162.881 106.95 162.443 107.014 162.003 107.016Z" fill="#3A91E7"/>
<path d="M164.641 98.2728H166.709C166.876 98.2701 167.041 98.3136 167.186 98.3985C167.246 98.4325 167.299 98.4788 167.341 98.5343C167.382 98.5898 167.412 98.6534 167.427 98.7209L168.294 102.584C168.359 102.872 168.42 103.156 168.475 103.437C168.529 103.718 168.579 103.991 168.623 104.257L168.869 103.442C168.957 103.169 169.039 102.896 169.127 102.584L170.224 98.7154C170.26 98.5813 170.347 98.466 170.465 98.393C170.598 98.3082 170.752 98.2645 170.91 98.2673H172.056C172.222 98.2633 172.386 98.3069 172.527 98.393C172.648 98.465 172.737 98.5804 172.774 98.7154L173.805 102.584C173.882 102.874 173.964 103.158 174.041 103.437C174.118 103.716 174.2 103.983 174.272 104.273C174.315 104 174.37 103.727 174.436 103.448C174.502 103.169 174.568 102.901 174.639 102.584L175.555 98.7209C175.57 98.6534 175.6 98.5898 175.641 98.5343C175.683 98.4788 175.736 98.4325 175.796 98.3985C175.929 98.3137 176.083 98.27 176.24 98.2728H178.204L175.522 106.88H173.421C173.319 106.882 173.22 106.847 173.142 106.781C173.048 106.691 172.983 106.575 172.955 106.448L171.721 102.158C171.666 101.967 171.617 101.776 171.568 101.612C171.518 101.448 171.469 101.235 171.431 101.065C171.392 101.257 171.348 101.453 171.304 101.645C171.261 101.836 171.2 102.027 171.14 102.218L169.89 106.492C169.863 106.616 169.793 106.727 169.693 106.806C169.593 106.885 169.469 106.926 169.341 106.923H167.345L164.641 98.2728Z" fill="#3A91E7"/>
<path d="M185.153 106.869C184.965 106.879 184.777 106.845 184.604 106.77C184.453 106.674 184.342 106.527 184.291 106.355L184.11 105.885C183.891 106.066 183.683 106.224 183.485 106.366C183.29 106.501 183.082 106.618 182.866 106.716C182.646 106.815 182.416 106.888 182.18 106.934C181.914 106.982 181.644 107.006 181.374 107.005C181.012 107.008 180.651 106.956 180.304 106.852C180 106.76 179.72 106.603 179.482 106.393C179.252 106.19 179.074 105.935 178.961 105.65C178.835 105.322 178.773 104.974 178.78 104.623C178.785 104.296 178.864 103.975 179.01 103.683C179.198 103.325 179.475 103.022 179.816 102.803C180.293 102.498 180.818 102.275 181.368 102.142C182.172 101.944 182.998 101.854 183.825 101.874V101.502C183.859 101.112 183.748 100.723 183.513 100.409C183.397 100.293 183.258 100.203 183.105 100.144C182.952 100.086 182.788 100.061 182.624 100.071C182.372 100.064 182.12 100.097 181.878 100.169C181.689 100.227 181.506 100.302 181.33 100.393C181.176 100.475 181.028 100.552 180.88 100.617C180.718 100.687 180.542 100.72 180.365 100.716C180.204 100.719 180.046 100.675 179.909 100.59C179.789 100.506 179.69 100.396 179.619 100.267L179.147 99.4641C179.655 99.0138 180.245 98.6651 180.886 98.4367C181.543 98.2099 182.235 98.0971 182.931 98.1034C183.415 98.0956 183.895 98.181 184.346 98.3547C184.747 98.5101 185.109 98.7497 185.408 99.0571C185.707 99.3645 185.936 99.7326 186.079 100.136C186.241 100.572 186.321 101.033 186.315 101.497V106.874L185.153 106.869ZM182.185 105.3C182.487 105.309 182.787 105.249 183.063 105.126C183.346 104.989 183.602 104.804 183.82 104.579V103.399C183.393 103.393 182.967 103.427 182.547 103.503C182.271 103.543 182.001 103.622 181.747 103.738C181.582 103.81 181.443 103.93 181.346 104.082C181.27 104.207 181.23 104.351 181.231 104.497C181.219 104.613 181.235 104.729 181.277 104.837C181.319 104.946 181.386 105.042 181.473 105.12C181.685 105.254 181.935 105.317 182.185 105.3Z" fill="#3A91E7"/>
<path d="M188.169 106.869V98.2728H189.699C189.808 98.2705 189.917 98.2815 190.023 98.3055C190.101 98.3241 190.174 98.3596 190.237 98.4094C190.297 98.459 190.344 98.5229 190.374 98.5952C190.405 98.6882 190.431 98.7831 190.45 98.8793L190.593 99.6827C190.873 99.2361 191.234 98.8452 191.657 98.5296C192.033 98.2561 192.486 98.1088 192.951 98.1088C193.29 98.0924 193.624 98.1906 193.9 98.3875L193.566 100.284C193.554 100.379 193.507 100.467 193.434 100.53C193.354 100.58 193.26 100.605 193.165 100.601C193.055 100.597 192.945 100.584 192.836 100.562C192.675 100.533 192.512 100.521 192.348 100.524C192.004 100.533 191.671 100.641 191.388 100.835C191.104 101.029 190.884 101.301 190.752 101.617V106.896L188.169 106.869Z" fill="#3A91E7"/>
<path d="M198.748 98.1307C199.283 98.1239 199.815 98.2147 200.317 98.3985C200.777 98.5641 201.196 98.8269 201.545 99.169C201.897 99.5219 202.169 99.9446 202.346 100.41C202.539 100.934 202.636 101.49 202.631 102.049C202.633 102.208 202.623 102.367 202.604 102.524C202.594 102.626 202.565 102.724 202.516 102.814C202.474 102.883 202.41 102.937 202.335 102.967C202.243 102.996 202.146 103.009 202.05 103.005H197.065C197.086 103.589 197.32 104.144 197.723 104.568C198.101 104.902 198.594 105.077 199.099 105.055C199.361 105.061 199.622 105.026 199.873 104.951C200.073 104.885 200.267 104.803 200.454 104.705L200.92 104.464C201.058 104.395 201.21 104.36 201.364 104.361C201.455 104.357 201.544 104.375 201.626 104.414C201.707 104.453 201.777 104.512 201.831 104.585L202.582 105.503C202.333 105.791 202.043 106.042 201.721 106.246C201.422 106.434 201.102 106.584 200.767 106.694C200.452 106.802 200.126 106.877 199.796 106.918C199.487 106.96 199.175 106.982 198.863 106.984C198.284 106.988 197.708 106.888 197.163 106.689C196.643 106.498 196.168 106.2 195.77 105.814C195.358 105.403 195.036 104.909 194.827 104.366C194.585 103.725 194.468 103.045 194.481 102.36C194.478 101.8 194.579 101.245 194.778 100.721C194.969 100.213 195.262 99.75 195.639 99.3591C196.017 98.9683 196.47 98.6581 196.971 98.4477C197.536 98.2225 198.141 98.1147 198.748 98.1307ZM198.798 99.9067C198.586 99.8951 198.375 99.9264 198.176 99.9988C197.977 100.071 197.795 100.183 197.64 100.328C197.334 100.662 197.142 101.085 197.092 101.535H200.317C200.317 101.332 200.289 101.13 200.235 100.934C200.186 100.745 200.098 100.568 199.977 100.415C199.849 100.259 199.688 100.134 199.505 100.049C199.283 99.9505 199.041 99.9038 198.798 99.9122V99.9067Z" fill="#3A91E7"/>
<path d="M214.105 97.2345C214.036 97.3499 213.947 97.4518 213.841 97.535C213.738 97.6038 213.615 97.6382 213.49 97.6334C213.344 97.6272 213.201 97.5859 213.073 97.5132L212.574 97.2399C212.37 97.134 212.157 97.0445 211.938 96.9722C211.674 96.887 211.398 96.8464 211.121 96.8519C210.7 96.8203 210.281 96.9406 209.942 97.1908C209.814 97.3036 209.713 97.4438 209.646 97.6008C209.58 97.7578 209.55 97.9277 209.558 98.0979C209.552 98.3223 209.635 98.5401 209.788 98.7045C209.967 98.8779 210.175 99.0185 210.403 99.1198C210.684 99.2441 210.974 99.35 211.269 99.4368C211.593 99.5351 211.927 99.6444 212.262 99.7592C212.602 99.8802 212.936 100.021 213.26 100.18C213.581 100.337 213.874 100.546 214.126 100.798C214.389 101.056 214.596 101.365 214.735 101.705C214.903 102.113 214.984 102.553 214.971 102.994C214.974 103.531 214.876 104.063 214.68 104.563C214.49 105.041 214.202 105.474 213.836 105.836C213.445 106.213 212.98 106.505 212.47 106.694C211.879 106.91 211.252 107.016 210.622 107.005C210.235 107.005 209.849 106.965 209.47 106.885C208.697 106.737 207.955 106.458 207.276 106.06C206.971 105.879 206.689 105.661 206.437 105.41L207.271 104.098C207.333 103.996 207.422 103.913 207.529 103.858C207.638 103.797 207.76 103.765 207.885 103.765C208.065 103.77 208.24 103.825 208.39 103.923L208.938 104.273C209.172 104.411 209.418 104.528 209.673 104.623C209.988 104.734 210.321 104.787 210.655 104.781C211.08 104.806 211.502 104.686 211.85 104.443C212.002 104.306 212.12 104.137 212.193 103.947C212.267 103.757 212.294 103.552 212.273 103.35C212.285 103.098 212.201 102.852 212.037 102.661C211.868 102.472 211.66 102.321 211.428 102.218C211.15 102.094 210.862 101.992 210.567 101.912C210.244 101.825 209.914 101.727 209.574 101.617C209.234 101.508 208.903 101.375 208.582 101.218C208.261 101.061 207.97 100.851 207.721 100.595C207.455 100.318 207.246 99.991 207.106 99.6335C206.94 99.1787 206.862 98.6965 206.876 98.2127C206.875 97.756 206.968 97.3039 207.15 96.8847C207.335 96.4467 207.61 96.0521 207.957 95.7262C208.337 95.375 208.782 95.1003 209.267 94.9174C209.834 94.7074 210.435 94.6054 211.039 94.6169C211.406 94.6146 211.773 94.6438 212.136 94.7043C212.477 94.7588 212.813 94.8448 213.139 94.9611C213.446 95.0716 213.743 95.2069 214.028 95.3655C214.293 95.5215 214.541 95.7046 214.768 95.912L214.105 97.2345Z" fill="#3A91E7"/>
<path d="M215.86 105.568C215.859 105.38 215.899 105.194 215.975 105.022C216.045 104.853 216.15 104.7 216.282 104.574C216.414 104.444 216.57 104.342 216.743 104.273C216.926 104.195 217.124 104.156 217.324 104.158C217.712 104.16 218.084 104.308 218.366 104.574C218.571 104.772 218.71 105.028 218.766 105.307C218.822 105.586 218.791 105.875 218.679 106.137C218.608 106.308 218.501 106.463 218.366 106.59C218.233 106.722 218.074 106.824 217.9 106.891C217.717 106.964 217.521 107.001 217.324 107C217.125 107.001 216.927 106.964 216.743 106.891C216.571 106.822 216.414 106.72 216.282 106.591C216.151 106.461 216.046 106.307 215.975 106.137C215.896 105.958 215.856 105.764 215.86 105.568Z" fill="#3A91E7"/>
<path d="M231.589 106.869H229.395C229.181 106.879 228.969 106.819 228.792 106.699C228.638 106.595 228.522 106.443 228.463 106.268L227.744 104.158H223.132L222.413 106.268C222.34 106.449 222.213 106.603 222.049 106.71C221.886 106.818 221.693 106.873 221.497 106.869H219.304L224.004 94.7753H226.883L231.589 106.869ZM223.79 102.246H227.081L225.984 98.934L225.731 98.1908C225.633 97.9067 225.539 97.6006 225.441 97.2673C225.353 97.6061 225.265 97.9176 225.167 98.2072C225.068 98.4968 224.986 98.7537 224.903 98.9504L223.79 102.246Z" fill="#3A91E7"/>
<path d="M232.071 105.568C232.068 105.381 232.104 105.194 232.177 105.021C232.249 104.848 232.357 104.692 232.494 104.563C232.626 104.433 232.782 104.331 232.954 104.262C233.138 104.184 233.336 104.145 233.536 104.147C233.734 104.145 233.93 104.184 234.112 104.262C234.285 104.332 234.443 104.434 234.578 104.563C234.71 104.691 234.816 104.843 234.89 105.011C234.963 105.184 235.001 105.37 235.001 105.557C235.001 105.745 234.963 105.931 234.89 106.104C234.817 106.275 234.71 106.429 234.577 106.559C234.443 106.688 234.285 106.79 234.112 106.858C233.929 106.931 233.733 106.968 233.536 106.967C233.337 106.968 233.139 106.931 232.954 106.858C232.781 106.791 232.624 106.689 232.494 106.557C232.36 106.428 232.254 106.274 232.181 106.104C232.111 105.934 232.073 105.752 232.071 105.568Z" fill="#3A91E7"/>
<path d="M94.94 25.9685C94.6387 26.4842 94.2402 26.937 93.7664 27.3019C93.303 27.6189 92.7483 27.7763 92.1869 27.7501C91.5381 27.7243 90.9064 27.5363 90.3496 27.2036L88.1175 25.9959C87.2035 25.5177 86.2515 25.1156 85.2711 24.7936C84.0948 24.4165 82.865 24.232 81.6294 24.2471C79.2748 24.2471 77.5216 24.7463 76.3699 25.7445C75.7967 26.2492 75.344 26.8753 75.0451 27.5769C74.7461 28.2785 74.6085 29.0379 74.6423 29.7993C74.626 30.2967 74.7098 30.7923 74.8887 31.2569C75.0677 31.7215 75.3382 32.1457 75.6844 32.5044C76.4744 33.2871 77.4045 33.9154 78.4266 34.3569C79.6714 34.9209 80.9542 35.3974 82.2656 35.7832C83.7281 36.2168 85.2089 36.6977 86.708 37.2259C88.2242 37.7639 89.7075 38.3898 91.1503 39.1004C92.5674 39.8024 93.8633 40.7247 94.9894 41.8327C96.1535 42.9986 97.0842 44.3748 97.7316 45.8876C98.4686 47.7169 98.8231 49.6768 98.7736 51.6474C98.7937 54.0428 98.3505 56.4195 97.4683 58.6478C96.6426 60.804 95.3678 62.7615 93.728 64.3913C91.9841 66.0724 89.9094 67.3749 87.6348 68.2166C85.0013 69.178 82.2127 69.6485 79.4083 69.6047C77.6779 69.5907 75.953 69.4077 74.2584 69.0582C72.5274 68.7199 70.8298 68.2298 69.1854 67.5936C67.584 66.9852 66.0404 66.2354 64.573 65.3531C63.2098 64.5465 61.95 63.5776 60.8217 62.4677L64.5346 56.6149C64.815 56.1538 65.2147 55.7763 65.6918 55.522C66.1808 55.2546 66.73 55.1154 67.2878 55.1176C68.0884 55.1356 68.8677 55.378 69.5364 55.8171C70.2932 56.287 71.1488 56.8062 72.1031 57.3745C73.1524 57.9881 74.2535 58.5092 75.3937 58.932C76.801 59.4309 78.2878 59.6698 79.7812 59.6369C82.0627 59.6369 83.836 59.136 85.101 58.1341C86.3661 57.1322 86.9968 55.5456 86.9932 53.3743C87.0432 52.2568 86.6714 51.1611 85.9511 50.3031C85.1886 49.4597 84.2535 48.7889 83.2089 48.3358C81.969 47.7762 80.685 47.3193 79.3699 46.9696C77.933 46.5725 76.4577 46.1335 74.944 45.6526C73.4294 45.1677 71.9521 44.5741 70.5236 43.8766C69.0949 43.1728 67.7968 42.2323 66.6845 41.095C65.4934 39.8588 64.5612 38.3986 63.9423 36.7997C63.1928 34.7683 62.8391 32.6131 62.9003 30.4496C62.9039 28.4108 63.3217 26.3939 64.1288 24.5204C64.961 22.5753 66.1877 20.8227 67.732 19.3726C69.4197 17.799 71.4003 16.57 73.5619 15.7549C76.0936 14.8149 78.78 14.357 81.4814 14.4051C83.1072 14.4004 84.7307 14.5302 86.335 14.7931C87.8591 15.0371 89.3573 15.4213 90.8103 15.9407C92.1818 16.4267 93.507 17.0339 94.77 17.755C95.9522 18.4272 97.0559 19.2281 98.0606 20.1431L94.94 25.9685Z" fill="#3A91E7"/>
<path d="M155.455 68.9762H145.714C144.759 69.0133 143.816 68.7473 143.022 68.2166C142.338 67.7385 141.824 67.0576 141.552 66.2711L138.354 56.8608H117.761L114.563 66.2711C114.239 67.0824 113.674 67.776 112.944 68.2593C112.214 68.7425 111.354 68.9926 110.477 68.9762H100.66L121.627 15.0062H134.488L155.455 68.9762ZM120.662 48.3413H135.47L130.484 33.5864C130.166 32.6465 129.79 31.5408 129.354 30.2693C128.916 29.0015 128.493 27.6244 128.071 26.1434C127.671 27.6462 127.265 29.0452 126.843 30.3294C126.42 31.6136 126.025 32.723 125.653 33.6575L120.662 48.3413Z" fill="#3A91E7"/>
<path d="M190.028 25.9685C189.727 26.4842 189.328 26.937 188.854 27.3019C188.39 27.6175 187.836 27.7747 187.275 27.75C186.625 27.7238 185.991 27.5359 185.432 27.2036C184.78 26.8429 184.034 26.444 183.206 25.9959C182.291 25.5196 181.339 25.1176 180.359 24.7936C179.183 24.417 177.953 24.2324 176.718 24.2471C174.367 24.2471 172.613 24.7463 171.458 25.7445C170.885 26.2492 170.432 26.8753 170.133 27.5769C169.834 28.2785 169.697 29.0379 169.73 29.7993C169.714 30.2967 169.798 30.7923 169.977 31.2569C170.156 31.7215 170.426 32.1457 170.772 32.5044C171.562 33.2871 172.493 33.9154 173.515 34.3569C174.759 34.9226 176.042 35.3993 177.354 35.7832C178.816 36.2168 180.297 36.6977 181.796 37.2259C183.312 37.7639 184.796 38.3898 186.238 39.1004C187.656 39.8009 188.953 40.7234 190.078 41.8327C191.243 42.9974 192.174 44.3738 192.82 45.8876C193.555 47.7173 193.908 49.6772 193.856 51.6474C193.875 54.0422 193.434 56.4184 192.556 58.6478C191.731 60.804 190.456 62.7615 188.816 64.3913C187.072 66.0724 184.998 67.3749 182.723 68.2166C180.089 69.1779 177.301 69.6484 174.496 69.6046C172.768 69.5904 171.045 69.4074 169.352 69.0582C167.619 68.719 165.92 68.229 164.274 67.5936C162.674 66.9841 161.133 66.2343 159.667 65.3531C158.303 64.5452 157.041 63.5764 155.91 62.4677L159.628 56.6149C159.908 56.1552 160.305 55.7779 160.78 55.522C161.271 55.255 161.822 55.1159 162.381 55.1176C163.182 55.1364 163.961 55.3788 164.63 55.8171C165.387 56.287 166.242 56.8062 167.197 57.3745C168.245 57.9894 169.346 58.5106 170.487 58.932C171.895 59.4298 173.382 59.6687 174.875 59.6369C177.156 59.6369 178.928 59.136 180.189 58.1341C181.451 57.1322 182.083 55.5456 182.087 53.3743C182.137 52.2568 181.765 51.1611 181.045 50.3031C180.282 49.4597 179.347 48.7889 178.303 48.3358C177.062 47.7771 175.778 47.3201 174.463 46.9696C173.021 46.5707 171.551 46.1335 170.038 45.6526C168.521 45.1687 167.042 44.5751 165.612 43.8766C164.182 43.1746 162.884 42.2338 161.773 41.095C160.581 39.8588 159.649 38.3986 159.03 36.7997C158.281 34.7683 157.927 32.6131 157.988 30.4496C157.992 28.4108 158.41 26.3939 159.217 24.5204C160.049 22.5753 161.276 20.8227 162.82 19.3726C164.508 17.799 166.488 16.57 168.65 15.7549C171.182 14.8145 173.868 14.3566 176.569 14.4051C178.194 14.4004 179.815 14.5302 181.418 14.7931C182.944 15.0371 184.444 15.4213 185.898 15.9407C187.269 16.4279 188.595 17.0351 189.858 17.755C191.04 18.4272 192.144 19.2281 193.149 20.1431L190.028 25.9685Z" fill="#3A91E7"/>
<path d="M235.005 15.0062V24.6351H212.772V38.297H231.287V47.997H212.772V68.9981H200.158V15.0062H235.005Z" fill="#3A91E7"/>
<path d="M54.3008 50.1337C54.3008 52.5163 53.2588 53.5984 50.906 53.5874C45.1529 53.5874 39.3888 53.5546 33.6466 53.6148C31.2335 53.6148 30.2518 52.4398 30.2628 50.1337C30.2628 45.7619 30.2628 41.3901 30.2354 37.0183C30.1696 29.8431 26.7254 26.3019 19.6944 26.1926C15.5701 26.1379 11.4733 26.1379 7.34358 26.1379C5.06208 26.1379 3.91036 25.2035 4.02554 22.7061C4.1791 19.7551 4.05844 16.7932 4.06941 13.8313C4.08038 10.8694 4.1078 7.91844 4.06941 4.95654C4.02553 2.86354 5.10596 1.85801 7.04743 1.84162C12.9212 1.79244 18.7895 1.77604 24.6632 1.84162C27.1202 1.86894 28.1403 3.30071 28.0965 5.77078C28.0197 10.7437 28.0197 15.713 28.0965 20.6786C28.1897 26.0286 31.0306 29.0835 36.323 29.3184C40.897 29.5152 45.4764 29.4714 50.0614 29.3785C52.9571 29.3294 54.3995 30.2584 54.3063 33.4662C54.1582 39.0075 54.2514 44.576 54.3008 50.1337Z" fill="#3A91E7"/>
<path d="M52.3155 79.6926C52.3155 82.0752 51.2679 83.1518 48.9206 83.1463C43.1675 83.119 37.4034 83.1081 31.6613 83.1463C29.2427 83.1463 28.2665 81.9769 28.2774 79.6707C28.2774 75.2989 28.2774 70.9271 28.2774 66.5553C28.2116 59.3746 24.7674 55.8389 17.731 55.7296C13.6232 55.6695 9.50442 55.675 5.4021 55.675C3.1206 55.675 1.9634 54.746 2.11148 52.2486C2.25956 49.2976 2.14438 46.3357 2.14987 43.3738C2.15535 40.4119 2.19374 37.4609 2.14987 34.499C2.11148 32.4006 3.18642 31.4005 5.13337 31.3841C11.0071 31.3349 16.8754 31.3185 22.7437 31.3841C25.2062 31.3841 26.2263 32.8432 26.1824 35.3133C26.1056 40.2862 26.1056 45.2555 26.1824 50.2211C26.2756 55.5657 29.1165 58.6205 34.409 58.8609C38.9829 59.0522 43.5624 59.0139 48.1199 58.921C51.0211 58.8664 52.4581 59.8009 52.3703 63.0087C52.1509 68.5609 52.2442 74.1295 52.3155 79.6926Z" fill="#FF4B68"/>
<path d="M44.1328 23.6624C41.3193 23.6624 38.5003 23.6078 35.6868 23.6624C33.345 23.7171 32.281 22.7771 32.3194 20.3016C32.4181 14.6328 32.4181 8.96221 32.3194 3.28979C32.2756 0.776 33.4163 -0.0273195 35.7417 0.0109338C41.4838 0.0710462 47.2589 0.0874404 52.9791 0.0109338C55.458 -0.0218548 56.33 1.24597 56.33 3.49198C56.33 9.04418 56.33 14.5964 56.33 20.154C56.33 22.7279 55.0193 23.7225 52.5787 23.6679C49.7652 23.6078 46.9463 23.6679 44.1328 23.6679V23.6624Z" fill="#FF4B68"/>
<path d="M11.8188 83.4359C8.99987 83.4359 6.18638 83.3868 3.3729 83.4359C1.03107 83.4906 -0.0328994 82.5506 0.00549125 80.0806C0.10421 74.4082 0.10421 68.7376 0.00549125 63.0688C-0.0383838 60.555 1.10237 59.7517 3.42226 59.7899C9.16988 59.85 14.9394 59.861 20.6651 59.7899C23.1441 59.7517 24.0161 61.025 24.0161 63.271C24.0161 68.8232 24.0161 74.3754 24.0161 79.9276C24.0161 82.5015 22.6998 83.5015 20.2593 83.4469C17.4458 83.3813 14.6323 83.4469 11.8188 83.4469V83.4359Z" fill="#3A91E7"/>
</g>
<defs>
<clipPath id="clip0_50_3427">
<rect width="235" height="107" fill="white"/>
</clipPath>
</defs>
</svg>
