<svg width="56" height="82" viewBox="0 0 56 82" fill="none" xmlns="http://www.w3.org/2000/svg">
<g clip-path="url(#clip0_46_187)">
<path d="M53.9894 49.2654C53.9894 51.5958 52.9294 52.6517 50.59 52.6517C44.8876 52.6517 39.1853 52.6517 33.4464 52.6517C31.0338 52.6517 30.0835 51.4866 30.0835 49.229C30.0835 44.896 30.0835 40.5993 30.0835 36.3027C30.0835 29.2388 26.4282 25.7796 19.6292 25.6704C15.5352 25.6704 11.4413 25.6704 7.3473 25.6704C5.08099 25.6704 3.94774 24.7237 4.0574 22.2841C4.16706 19.8445 4.0574 16.4581 4.0574 13.5816C4.0574 10.705 4.0574 7.75566 4.0574 4.84269C3.99196 4.43578 4.02228 4.01928 4.14619 3.6261C4.2701 3.23292 4.48417 2.87382 4.77133 2.57717C5.0585 2.28052 5.41102 2.05445 5.80096 1.91681C6.19091 1.77917 6.60762 1.73372 7.01822 1.78407C12.8668 1.78407 18.6787 1.78407 24.5273 1.78407C26.9764 1.78407 27.9633 3.20415 27.9267 5.64376C27.9267 10.523 27.9267 15.4022 27.9267 20.2086C27.8139 21.3193 27.9444 22.4411 28.3089 23.4967C28.6735 24.5524 29.2635 25.5167 30.0384 26.3232C30.8133 27.1297 31.7546 27.7592 32.7973 28.1682C33.8401 28.5773 34.9595 28.7562 36.0783 28.6926C40.6475 28.9111 45.1801 28.8747 49.7493 28.6926C52.637 28.6926 54.0627 29.5665 53.9531 32.6979C53.8434 38.3054 53.9163 43.8036 53.9894 49.2654Z" fill="#5E90E3"/>
<path d="M52.0158 78.286C52.0158 80.6528 50.9923 81.7087 48.6529 81.6723H31.5093C29.0968 81.6723 28.1098 80.5435 28.1098 78.2495C28.1098 73.9529 28.1098 69.6563 28.1098 65.3597C28.1098 58.2957 24.4545 54.8002 17.619 54.7274C13.525 54.7274 9.46743 54.7274 5.37344 54.7274C3.10712 54.7274 1.93754 53.8171 2.08375 51.3774C2.22997 48.9378 2.08375 45.5515 2.08375 42.6385C2.08375 39.7256 2.08375 36.8126 2.08375 33.9361C2.01972 33.5277 2.05069 33.1102 2.17456 32.7157C2.29842 32.3213 2.51169 31.9605 2.79791 31.6613C3.08413 31.3621 3.43576 31.1325 3.82531 30.9903C4.21486 30.8481 4.63205 30.797 5.04458 30.841H22.5536C25.0027 30.841 26.209 32.2975 25.9897 34.7371C25.9897 39.5921 25.9897 44.447 25.9897 49.302C25.8825 50.4146 26.0181 51.5371 26.387 52.5926C26.756 53.6482 27.3496 54.6118 28.1272 55.4176C28.9049 56.2233 29.8481 56.8521 30.8924 57.2609C31.9367 57.6697 33.0574 57.8488 34.1776 57.786C38.7103 57.786 43.2794 57.786 47.812 57.786C50.6997 57.786 52.1255 58.6234 52.0524 61.7913C52.0158 67.3623 52.0158 72.8242 52.0158 78.286Z" fill="#DE4C67"/>
<path d="M43.8642 23.2309C41.0862 23.2309 38.2714 23.2309 35.4933 23.2309C32.7153 23.2309 32.0939 22.357 32.1305 19.9174C32.1305 14.3585 32.1305 8.78744 32.1305 3.20426C32.1305 0.728236 33.227 -0.0728309 35.5299 -0.0364188C41.2323 -0.0364188 46.9712 -0.0364188 52.6735 -0.0364188C55.1226 -0.0364188 56 1.16518 56 3.38631C56 8.81171 56 14.3099 56 19.7353C56 22.2842 54.6841 23.3765 52.3447 23.3765C50.0052 23.3765 46.7518 23.3765 43.9372 23.3765L43.8642 23.2309Z" fill="#DE4C67"/>
<path d="M11.8067 81.9636C8.99209 81.9636 6.17752 81.9636 3.39945 81.9636C0.621382 81.9636 3.41982e-05 81.0897 0.0365877 78.6501C0.0365877 73.0669 0.0365877 67.4959 0.0365877 61.937C0.0365877 59.4609 1.16972 58.6963 3.43604 58.6963C9.17494 58.6963 14.8773 58.6963 20.5797 58.6963C23.0653 58.6963 23.9059 59.8979 23.9059 62.119V78.468C23.9059 81.0169 22.6266 82.1093 20.2506 81.9272L11.8067 81.9636Z" fill="#5E90E3"/>
</g>
<defs>
<clipPath id="clip0_46_187">
<rect width="56" height="82" fill="white"/>
</clipPath>
</defs>
</svg>
